<?xml version="1.0" encoding="utf-8"?>
<!-- Generator: Adobe Illustrator 21.1.0, SVG Export Plug-In . SVG Version: 6.00 Build 0)  -->
<svg version="1.1" xmlns="http://www.w3.org/2000/svg" xmlns:xlink="http://www.w3.org/1999/xlink" x="0px" y="0px"
	 viewBox="0 0 745 400" style="enable-background:new 0 0 745 400;" xml:space="preserve">
<style type="text/css">
	.st0{display:none;}
	.st1{fill:none;stroke:#000000;stroke-miterlimit:10;}
	.st2{opacity:0.5;fill:none;stroke:#DD2222;stroke-width:11.3386;stroke-miterlimit:10;}
	.st3{opacity:0.5;fill:none;stroke:#DD2222;stroke-width:28.3465;stroke-miterlimit:10;}
	.st4{opacity:0.5;fill:none;stroke:#DD2222;stroke-width:22.6772;stroke-miterlimit:10;}
	.st5{opacity:0.5;fill:none;stroke:#000000;stroke-width:2.8346;stroke-miterlimit:10;}
	.st6{opacity:0.5;fill:none;stroke:#DD2222;stroke-width:8.5039;stroke-miterlimit:10;}
	.st7{opacity:0.5;fill:none;stroke:#DD2222;stroke-width:5.6693;stroke-miterlimit:10;}
	.st8{opacity:0.5;fill:none;stroke:#DD2222;stroke-width:2.8346;stroke-miterlimit:10;}
	.st9{fill:#A1C9E5;}
	.st10{fill:#FF5CDC;}
	.st11{opacity:0.35;fill:none;stroke:#FF0047;stroke-width:31.1811;stroke-miterlimit:10;}
	.st12{opacity:0.35;fill:none;stroke:#FF0047;stroke-width:14.1732;stroke-miterlimit:10;}
	.st13{opacity:0.35;fill:none;stroke:#FF0047;stroke-width:22.6772;stroke-miterlimit:10;}
	.st14{opacity:0.35;fill:none;stroke:#FF0047;stroke-width:25.5118;stroke-miterlimit:10;}
	.st15{opacity:0.35;fill:none;stroke:#FF0047;stroke-width:11.3386;stroke-miterlimit:10;}
	.st16{opacity:0.35;fill:none;stroke:#FF0047;stroke-width:19.8425;stroke-miterlimit:10;}
	.st17{opacity:0.35;fill:none;stroke:#000000;stroke-width:5.6693;stroke-miterlimit:10;}
	.st18{opacity:0.35;fill:none;stroke:#FF0047;stroke-width:5.6693;stroke-miterlimit:10;}
	.st19{opacity:0.54;fill:none;stroke:#FF0047;stroke-width:19.8425;stroke-miterlimit:10;}
	.st20{opacity:0.43;fill:none;stroke:#FF0047;stroke-width:11.3386;stroke-miterlimit:10;}
	.st21{fill:none;stroke:#000000;stroke-width:5.6693;stroke-miterlimit:10;}
	.st22{opacity:0.44;fill:#45AEFF;}
	.st23{opacity:0.5;fill:#C3B9FF;}
	.st24{fill:#FF0047;}
	.st25{fill:#6489BF;}
	.st26{fill:#26499D;}
	.st27{clip-path:url(#SVGID_2_);fill:#CAD9E0;}
	.st28{clip-path:url(#SVGID_2_);}
	.st29{fill:none;stroke:#FFFFFF;stroke-width:31.1811;stroke-miterlimit:10;}
	.st30{fill:none;stroke:#FFFFFF;stroke-width:14.1732;stroke-miterlimit:10;}
	.st31{fill:none;stroke:#FFFFFF;stroke-width:22.6772;stroke-miterlimit:10;}
	.st32{fill:none;stroke:#FFFFFF;stroke-width:11.3386;stroke-miterlimit:10;}
	.st33{fill:none;stroke:#FFFFFF;stroke-width:19.8425;stroke-miterlimit:10;}
	.st34{fill:none;stroke:#FFFFFF;stroke-width:5.6693;stroke-miterlimit:10;}
	.st35{fill:none;stroke:#FFFFFF;stroke-width:25.5118;stroke-miterlimit:10;}
	.st36{opacity:0.5;clip-path:url(#SVGID_2_);fill:none;stroke:#000000;stroke-width:5.6693;stroke-miterlimit:10;}
	.st37{opacity:0.44;clip-path:url(#SVGID_2_);fill:#A4A2FF;}
	.st38{clip-path:url(#SVGID_2_);fill:#A1C9E5;}
	.st39{clip-path:url(#SVGID_2_);fill:#6489BF;}
	.st40{clip-path:url(#SVGID_2_);fill:#FF0039;}
	.st41{clip-path:url(#SVGID_2_);fill:none;stroke:#000000;stroke-miterlimit:10;}
	.st42{fill:#FF0039;}
	.st43{clip-path:url(#SVGID_4_);fill:#CAD9E0;}
	.st44{clip-path:url(#SVGID_4_);}
	.st45{opacity:0.5;clip-path:url(#SVGID_4_);fill:none;stroke:#000000;stroke-width:5.6693;stroke-miterlimit:10;}
	.st46{opacity:0.44;clip-path:url(#SVGID_4_);fill:#8888E2;}
	.st47{clip-path:url(#SVGID_4_);fill:#9BCC9B;}
	.st48{clip-path:url(#SVGID_4_);fill:#6489BF;}
	.st49{clip-path:url(#SVGID_4_);fill:#FF0039;}
	.st50{clip-path:url(#SVGID_4_);fill:none;stroke:#000000;stroke-miterlimit:10;}
	.st51{fill:#FFFFFF;}
</style>
<g id="レイヤー_1" class="st0">
</g>
<g id="レイヤー_2">
</g>
<g id="道_1_">
</g>
<g id="レイヤー_4">
</g>
<g id="レイヤー_5">
</g>
<g id="道">
</g>
<g id="地下鉄">
</g>
<g id="ランドマーク">
</g>
<g id="文字">
</g>
<g id="_x37_45:400">
	<g>
		<defs>
			<rect id="SVGID_3_" width="745" height="400"/>
		</defs>
		<clipPath id="SVGID_2_">
			<use xlink:href="#SVGID_3_"  style="overflow:visible;"/>
		</clipPath>
		<rect class="st27" width="745" height="400"/>
		<g class="st28">
			<line class="st29" x1="-4.1" y1="126" x2="555.2" y2="126"/>
			<line class="st30" x1="58.6" y1="74.3" x2="555.2" y2="74.3"/>
			<line class="st31" x1="555.2" y1="-0.7" x2="555.2" y2="406.6"/>
			<line class="st30" x1="-4.1" y1="190.7" x2="555.2" y2="190.7"/>
			<line class="st30" x1="-4.1" y1="252.7" x2="555.2" y2="252.7"/>
			<line class="st30" x1="111.6" y1="314.7" x2="429.9" y2="314.7"/>
			<polyline class="st30" points="111.6,363.6 290.1,363.6 352.4,381.1 429.9,389.8 			"/>
			<line class="st30" x1="352.4" y1="-0.7" x2="352.4" y2="406.6"/>
			<line class="st32" x1="289.1" y1="126" x2="289.1" y2="362.9"/>
			<line class="st32" x1="196" y1="126" x2="196" y2="406.6"/>
			<line class="st33" x1="111.6" y1="126" x2="111.6" y2="406.6"/>
			<line class="st32" x1="352.4" y1="354" x2="429.9" y2="354"/>
			<line class="st30" x1="210" y1="-4.9" x2="228.6" y2="124.9"/>
			<line class="st30" x1="288.3" y1="-0.7" x2="288.3" y2="74.3"/>
			<line class="st30" x1="492.6" y1="-0.7" x2="492.6" y2="190.7"/>
			<line class="st34" x1="258.9" y1="190.7" x2="258.9" y2="252.7"/>
			<line class="st34" x1="150.8" y1="-0.7" x2="148.8" y2="74.3"/>
			<line class="st34" x1="217" y1="43.8" x2="288.3" y2="43.8"/>
			<line class="st33" x1="73.1" y1="117.7" x2="28.3" y2="-6.6"/>
			<line class="st32" x1="80" y1="-6.2" x2="40.4" y2="14.8"/>
			<line class="st35" x1="429.9" y1="406.6" x2="429.9" y2="-0.7"/>
		</g>
		<line class="st36" x1="28.3" y1="-0.7" x2="176.4" y2="406.6"/>
		<line class="st36" x1="429.9" y1="-0.7" x2="429.9" y2="406.6"/>
		<polygon style="opacity:0.44;clip-path:url(#SVGID_2_);fill:#8888E2;" points="4.2,-6.6 58.8,149.7 103.4,135.8 51.2,-6.6 		"/>
		<rect x="406.1" y="-0.7" style="opacity:0.44;clip-path:url(#SVGID_2_);fill:#8888E2;" width="46.5" height="242.5"/>
		<rect x="569.2" style="clip-path:url(#SVGID_2_);fill:#9BCC9B;" width="175.8" height="400"/>
		<circle class="st39" cx="511.1" cy="152.2" r="8.2"/>
		<circle class="st39" cx="519.3" cy="273" r="8.2"/>
		<circle class="st39" cx="284.3" cy="383.1" r="8.2"/>
		<circle class="st39" cx="472.3" cy="387.2" r="8.2"/>
		<circle class="st39" cx="368.6" cy="234.4" r="8.2"/>
		<circle class="st39" cx="92.7" cy="161.1" r="8.2"/>
		<circle class="st40" cx="371.3" cy="272" r="10"/>
		<circle class="st39" cx="183.4" cy="31.7" r="8.2"/>
		<circle class="st39" cx="253.4" cy="20.7" r="8.2"/>
		<circle class="st39" cx="266.3" cy="152.2" r="8.2"/>
		<circle class="st39" cx="81.2" cy="271.7" r="8.2"/>
		<g class="st28">
			<path d="M248.7,130c-0.2-0.3-0.7-0.8-1.2-1.2v2.8h-1.1v-2.8c-0.5,0.8-1.2,1.5-1.8,2c-0.2-0.3-0.5-0.6-0.7-0.8
				c0.8-0.5,1.7-1.5,2.3-2.5h-2v-0.9h2.2v-1.1h-2.3v-0.9h1.2c0-0.4-0.2-1.1-0.4-1.5l0.8-0.2h-1.5v-0.9h2.1v-1.1h1.1v1.1h2.1v0.9
				h-1.5l0.8,0.2c-0.2,0.6-0.5,1.2-0.7,1.6h1.4v0.9h-2.2v1.1h2.1v0.9h-2.1v0.2c0.4,0.3,1.5,1.2,1.8,1.4L248.7,130z M245.9,122.8
				c0.2,0.5,0.4,1.1,0.5,1.6l-0.7,0.2h2.6l-0.8-0.2c0.2-0.4,0.4-1.1,0.5-1.6H245.9z M255.1,125.7h-1.3v5.9h-1.1v-5.9h-1.5v0.1
				c0,1.8-0.2,4.3-1.9,5.9c-0.1-0.2-0.5-0.6-0.8-0.8c1.5-1.5,1.6-3.5,1.6-5.2v-4.1l0.7,0.2c1.2-0.3,2.4-0.6,3.2-1l0.9,0.8
				c-1,0.5-2.5,0.8-3.8,1.1v1.9h3.9V125.7z"/>
			<path d="M259.8,123.5c-0.3,0.6-0.6,1.2-1,1.8v6.4h-1.1v-5c-0.4,0.5-0.8,0.9-1.2,1.2c-0.1-0.2-0.5-0.8-0.7-1
				c1.1-0.9,2.2-2.3,2.9-3.7L259.8,123.5z M257.7,123.8h-1.1v-2.2h4.4v-1h1.2v1h4.5v2h-1.1v-1h-7.8V123.8z M263.8,124.9
				c-0.1,0.4-0.2,0.7-0.4,1.1h2.8v5.7h-1.1v-0.4h-3.8v0.4h-1.1V126h2c0.1-0.3,0.2-0.7,0.2-1.1h-2.7v-1h6.9v1H263.8z M265.1,126.9
				h-3.8v1.1h3.8V126.9z M265.1,130.3V129h-3.8v1.3H265.1z"/>
			<path d="M270.8,129.1c0.5,0.8,1.5,1.2,2.8,1.3c1.4,0.1,4.1,0,5.6-0.1c-0.1,0.3-0.3,0.8-0.4,1.1c-1.4,0.1-3.9,0.1-5.3,0
				c-1.5-0.1-2.5-0.5-3.3-1.4c-0.6,0.5-1.2,1-1.8,1.5l-0.5-1.1c0.6-0.3,1.2-0.8,1.8-1.2v-2.9h-1.6v-1h2.7V129.1z M270.3,123.6
				c-0.4-0.6-1.2-1.4-2-2l0.8-0.7c0.7,0.5,1.6,1.3,2.1,1.9L270.3,123.6z M273,129.8h-1v-6.1h3.1c-0.6-0.3-1.4-0.6-2-0.9l0.7-0.6
				c0.5,0.2,1,0.4,1.5,0.6c0.5-0.2,0.9-0.5,1.3-0.8H272v-0.9h5.7l0.2-0.1l0.7,0.5c-0.6,0.6-1.5,1.2-2.3,1.6c0.3,0.1,0.6,0.3,0.8,0.4
				h1.5v5.1c0,0.5-0.1,0.8-0.4,0.9c-0.3,0.1-0.8,0.2-1.6,0.2c0-0.3-0.2-0.6-0.3-0.9c0.5,0,1,0,1.1,0c0.1,0,0.2,0,0.2-0.2v-0.8h-1.8
				v1.8h-1v-1.8H273V129.8z M273,124.5v0.9h1.7v-0.9H273z M274.8,127v-0.9H273v0.9H274.8z M277.5,124.5h-1.8v0.9h1.8V124.5z
				 M277.5,127v-0.9h-1.8v0.9H277.5z"/>
			<path d="M283.1,121.2c-0.2,0.7-0.4,2.2-0.5,2.9c0.5-1.1,1.7-2.4,3.1-2.4c1.6,0,2.8,1.6,2.8,4.1c0,3.3-2.1,4.8-5.1,5.4l-0.7-1.1
				c2.6-0.4,4.5-1.4,4.5-4.3c0-1.8-0.6-3.1-1.8-3.1c-1.4,0-2.8,2.1-2.9,3.7c0,0.4,0,0.8,0,1.4l-1.2,0.1c-0.1-0.4-0.1-1.1-0.1-1.9
				c0-1.1,0.2-2.7,0.4-3.8c0-0.4,0.1-0.8,0.1-1.1L283.1,121.2z"/>
		</g>
		<g class="st28">
			<path d="M9.9,126.7c0.6,0.4,1.3,1.1,1.8,1.8l-0.9,0.5c-0.8-1.1-2-2.1-3.1-2.8c1.1-0.7,2.3-1.8,3.1-2.8l0.9,0.5
				c-0.5,0.7-1.2,1.4-1.8,1.8h8.9v1H9.9z"/>
			<path d="M30.2,121.7v9.5h-1.2v-0.7h-7.6v0.8h-1.1v-9.6H30.2z M29.1,129.4v-3.2c0,0.3-0.1,0.5-0.1,0.6c-0.1,0.2-0.2,0.4-0.4,0.5
				c-0.2,0.1-0.5,0.1-0.7,0.1H27c-0.3,0-0.6-0.1-0.8-0.3c-0.2-0.2-0.3-0.4-0.3-1.2v-3.2h-1.3c-0.1,2.4-0.5,4.2-2.2,5.3
				c-0.1-0.3-0.4-0.6-0.7-0.8c1.5-0.9,1.8-2.5,1.8-4.5h-1.9v6.6H29.1z M29.1,122.8h-2.1v3.3c0,0.2,0,0.3,0.1,0.4
				c0.1,0,0.2,0.1,0.3,0.1h0.4c0.1,0,0.3,0,0.3,0c0.1,0,0.1-0.1,0.2-0.3c0-0.2,0-0.5,0.1-1c0.2,0.2,0.5,0.4,0.8,0.5V122.8z"/>
			<path d="M34.6,125.6l-1.2,0.4c-0.2-0.8-1-2.8-1.4-3.3l1.2-0.4C33.6,123,34.3,124.8,34.6,125.6z M42,122.4
				c-0.1,0.3-0.2,0.6-0.3,0.8c-0.4,1.4-1,3.2-2,4.5c-1.2,1.6-3,2.9-4.7,3.5l-1-1.1c1.7-0.5,3.5-1.6,4.7-3.1c1-1.2,1.7-3.3,1.9-5
				L42,122.4z M37.8,124.7l-1.2,0.4c-0.2-0.7-0.9-2.5-1.2-3.2l1.2-0.4C36.8,122.1,37.6,124,37.8,124.7z"/>
			<path d="M48.8,122.9c1.2,1.8,3.2,3.5,5.1,4.3c-0.3,0.3-0.5,0.6-0.7,1c-0.5-0.3-0.9-0.6-1.4-0.9v4.4h-1.2v-0.4h-4.5v0.5H45v-4.4
				c-0.5,0.3-1,0.6-1.5,0.9c-0.1-0.2-0.4-0.6-0.7-0.9c2-1,4-2.9,4.9-4.4H48.8z M47.3,121.3c-0.8,1.2-2.1,2.4-3.2,3.2
				c-0.2-0.2-0.6-0.6-0.9-0.8c1.1-0.7,2.3-1.7,3-2.7L47.3,121.3z M51.1,126.8C50,126,49,125,48.3,124c-0.6,0.9-1.6,1.9-2.7,2.8H51.1
				z M50.6,130.2v-2.4h-4.5v2.4H50.6z M52.4,124.3c-0.6-0.8-2-2.1-3.1-2.9l0.9-0.6c1.1,0.8,2.5,2,3.2,2.8L52.4,124.3z"/>
		</g>
		<g class="st28">
			<path d="M463.9,285c0.3,0,0.7,0,0.9-0.1l1,0.6c-0.1,0.2-0.3,0.5-0.3,0.7c-0.3,1.2-1,2.8-2.1,4.1c-1.1,1.4-2.6,2.5-4.8,3.3l-1.1-1
				c2.3-0.7,3.7-1.8,4.8-3c0.9-1,1.6-2.5,1.8-3.5h-3.8c-0.8,1-1.8,2.1-3,2.9l-1.1-0.8c2.1-1.3,3.2-2.9,3.8-4
				c0.1-0.3,0.3-0.7,0.4-1.1l1.4,0.5c-0.2,0.4-0.5,0.8-0.6,1.1c-0.1,0.1-0.1,0.2-0.2,0.3H463.9z M464.8,283c0.3,0.4,0.7,1.2,1,1.6
				L465,285c-0.2-0.5-0.6-1.2-0.9-1.7L464.8,283z M466.2,282.5c0.3,0.4,0.8,1.2,1,1.6l-0.8,0.3c-0.3-0.5-0.6-1.2-1-1.7L466.2,282.5z
				"/>
			<path d="M476.4,287c-0.1,0.1-0.2,0.3-0.2,0.4c-0.3,1.2-0.9,2.4-1.8,3.4c-1.2,1.4-2.8,2.1-4.3,2.6l-0.9-1.1
				c1.7-0.4,3.2-1.1,4.2-2.2c0.7-0.7,1.1-1.6,1.3-2.4h-6.1c-0.3,0-0.8,0-1.3,0v-1.2c0.5,0,0.9,0.1,1.3,0.1h6.1c0.3,0,0.6,0,0.8-0.1
				L476.4,287z M468.5,283.7c0.3,0,0.8,0.1,1.1,0.1h4.7c0.4,0,0.9,0,1.2-0.1v1.2c-0.3,0-0.8,0-1.2,0h-4.7c-0.4,0-0.8,0-1.1,0V283.7z
				"/>
			<path d="M482.6,290.1c1.9-1.2,3.4-3,4.2-4.5l0.7,1.3c-0.9,1.5-2.3,3.2-4.2,4.3c-1.2,0.7-2.7,1.5-4.6,1.8l-0.8-1.2
				C479.9,291.5,481.5,290.8,482.6,290.1z M482.2,286.3l-0.9,1c-0.6-0.6-2.1-1.9-3-2.5l0.9-0.9C480,284.3,481.6,285.6,482.2,286.3z"
				/>
			<path d="M491.1,286.7c1.6,0.5,3.9,1.3,5.1,1.9l-0.5,1.3c-1.3-0.7-3.2-1.4-4.5-1.9l0,3.7c0,0.4,0,1.1,0.1,1.5h-1.5
				c0.1-0.4,0.1-1.1,0.1-1.5v-6.9c0-0.4,0-0.9-0.1-1.3h1.5c0,0.4-0.1,0.9-0.1,1.3V286.7z M494.5,286.1c-0.3-0.7-0.6-1.3-1.1-1.8
				l0.8-0.3c0.3,0.5,0.8,1.2,1.1,1.8L494.5,286.1z M496.1,285.5c-0.3-0.7-0.7-1.2-1.1-1.8l0.8-0.4c0.3,0.4,0.8,1.2,1.1,1.8
				L496.1,285.5z"/>
			<path d="M508.1,284.6c-0.1,0.1-0.3,0.4-0.4,0.5c-0.5,0.9-1.7,2.4-2.9,3.3l-1-0.8c1-0.6,2.1-1.8,2.4-2.5h-6.6
				c-0.5,0-0.9,0-1.4,0.1v-1.3c0.4,0.1,0.9,0.1,1.4,0.1h6.7c0.3,0,0.8,0,1-0.1L508.1,284.6z M503.2,286.2c0,3.1-0.2,5.4-3.3,7.1
				l-1.1-0.9c0.3-0.1,0.8-0.3,1.2-0.6c1.7-1.1,2-2.6,2-4.6c0-0.3,0-0.6-0.1-1H503.2z"/>
			<path d="M508.7,287.4c0.4,0,1.1,0.1,1.8,0.1h6.5c0.6,0,1.1,0,1.3-0.1v1.5c-0.3,0-0.8,0-1.3,0h-6.5c-0.7,0-1.4,0-1.8,0V287.4z"/>
			<path d="M529.7,285.2c-0.1,0.2-0.3,0.5-0.3,0.7c-0.3,1.2-1,2.8-2.1,4.1c-1.1,1.4-2.6,2.5-4.8,3.3l-1.1-1c2.3-0.7,3.7-1.8,4.8-3
				c0.9-1,1.6-2.5,1.8-3.5h-3.7c-0.8,1-1.8,2.1-3,2.9l-1.1-0.8c2.1-1.2,3.2-2.9,3.8-4c0.1-0.2,0.3-0.7,0.4-1.1l1.4,0.5
				c-0.2,0.4-0.5,0.8-0.6,1.1c0,0.1-0.1,0.2-0.2,0.3h2.9c0.3,0,0.7,0,0.9-0.1L529.7,285.2z"/>
			<path d="M505.6,304.4h-4.8v3.3h-1.2v-3.3h-4.7v-1.1h4.7v-1.7h-4v-1.1h4v-3.8h1.2v3.8h4.1v1.1h-4.1v1.7h4.8V304.4z M497.3,300
				c-0.2-0.7-0.8-1.8-1.3-2.7l1-0.4c0.6,0.8,1.2,1.9,1.4,2.6L497.3,300z M504.6,297.3c-0.5,1-1.1,2-1.5,2.7l-1-0.4
				c0.5-0.7,1.1-1.8,1.4-2.7L504.6,297.3z"/>
			<path d="M517,301.5c-0.4,1.4-0.9,2.7-1.6,3.7c0.3,0.9,0.8,1.4,1.1,1.4c0.2,0,0.3-0.3,0.4-1.5c0.3,0.2,0.6,0.5,0.9,0.5
				c-0.2,1.7-0.6,2-1.4,2c-0.7,0-1.2-0.5-1.7-1.5c-0.5,0.6-1.1,1.1-1.7,1.5c-0.2-0.2-0.6-0.6-0.9-0.8c0.2-0.1,0.3-0.2,0.5-0.3h-2.5
				v0.6h-0.9v-5.9h4.1v0.8h-1.4v0.7h1.4v2.3h-1.4v0.7h1.5v0.2c0.3-0.3,0.6-0.6,0.9-1c-0.3-1.1-0.6-2.6-0.7-4.3h-4.9v2.1
				c0,1.5-0.2,3.6-1.2,4.9c-0.2-0.2-0.6-0.5-0.9-0.6c0.9-1.2,1-3,1-4.3v-3h5.8c0-0.3,0-0.6,0-1h0.2v-0.6h-2.9v0.8h-1.1v-0.8H507
				v-0.9h2.7v-0.7h1.1v0.7h2.9v-0.7h1.1v0.7h2.7v0.9h-2.7v0.8h-0.3c0,0.3,0,0.5,0,0.7h1.8c-0.3-0.3-0.7-0.6-1-0.9l0.7-0.5
				c0.4,0.3,0.9,0.7,1.2,0.9l-0.5,0.4h1v0.9h-3c0.1,1.2,0.3,2.3,0.4,3.1c0.4-0.8,0.7-1.6,0.9-2.6L517,301.5z M510.1,302.1v0.7h1
				v-0.7H510.1z M512.5,303.5h-2.4v0.9h2.4V303.5z M510.1,305.8h1v-0.7h-1V305.8z"/>
			<path d="M523.7,301.6h-3.3v6h-1.1v-10.5h4.4V301.6z M520.4,298.1v0.9h2.2v-0.9H520.4z M522.7,300.7v-0.9h-2.2v0.9H522.7z
				 M529.2,306.2c0,0.7-0.2,1-0.6,1.2c-0.5,0.2-1.2,0.2-2.3,0.2c0-0.3-0.2-0.8-0.4-1.2c0.8,0,1.6,0,1.9,0c0.2,0,0.3-0.1,0.3-0.3
				v-4.6h-3.4v-4.5h4.5V306.2z M525.8,298.1v0.9h2.3v-0.9H525.8z M528.1,300.7v-1h-2.3v1H528.1z"/>
		</g>
		<g class="st28">
			<path d="M322.1,237c0,0.4,0,1.5,0,1.5h-1.3c0-0.1,0-0.3,0-0.7h-6.2c0,0.3,0,0.6,0,0.7h-1.3c0-0.1,0-1.1,0-1.5v-5.9
				c0-0.3,0-0.7,0-1c0.5,0,0.9,0,1.2,0h6.5c0.3,0,0.7,0,1.1,0c0,0.3,0,0.7,0,1V237z M314.7,231.3v5.4h6.2v-5.4H314.7z"/>
			<path d="M324.7,233c0.4,0,1.1,0.1,1.8,0.1h6.5c0.6,0,1.1,0,1.3-0.1v1.5c-0.3,0-0.8,0-1.3,0h-6.5c-0.7,0-1.4,0-1.8,0V233z"/>
			<path d="M337.2,229.6c0.6,0.8,1.6,2.6,2,3.4l-1.2,0.7c-0.5-1-1.4-2.7-2-3.5L337.2,229.6z M341.9,234.5c0.9-1.3,1.3-2.7,1.5-3.8
				c0.1-0.4,0.1-0.9,0.1-1.2l1.5,0.2c-0.1,0.4-0.2,0.9-0.3,1.1c-0.3,1.4-0.8,2.9-1.6,4.3c-0.9,1.4-2.3,2.8-4.2,3.7l-1.1-1
				C339.7,237,341,235.8,341.9,234.5z"/>
			<path d="M351,235.8c1.9-1.2,3.4-3,4.2-4.5l0.7,1.3c-0.9,1.5-2.3,3.2-4.2,4.3c-1.2,0.7-2.7,1.5-4.6,1.8l-0.8-1.2
				C348.2,237.2,349.8,236.5,351,235.8z M350.5,231.9l-0.9,1c-0.6-0.6-2.1-1.9-3-2.5l0.9-0.9C348.3,230,349.9,231.3,350.5,231.9z"/>
		</g>
		<g class="st28">
			<path d="M506.2,165.4c-0.1,0.1-0.2,0.5-0.2,0.7c-0.2,1.4-0.5,3.1-1.4,4.5c-1,1.5-2.6,2.8-4.5,3.4l-1-1.1c1.7-0.4,3.5-1.5,4.4-3
				c0.6-1,1-2.5,1.1-3.8h-6.2v2.2c0,0.2,0,0.5,0,0.9h-1.4c0-0.3,0-0.6,0-0.9v-2.6c0-0.3,0-0.6,0-0.9c0.3,0,0.8,0,1.4,0h6
				c0.3,0,0.7,0,0.9-0.1L506.2,165.4z"/>
			<path d="M515.1,173.6c0-0.2,0-0.4,0-0.6h-5.7c-0.5,0-1.1,0-1.4,0v-1.4c0.3,0,0.9,0.1,1.4,0.1h5.7v-5.3h-5.6c-0.5,0-1.1,0-1.4,0
				V165c0.4,0,1,0.1,1.4,0.1h6c0.3,0,0.7,0,1,0c0,0.3,0,0.7,0,1v6.2c0,0.4,0,1,0,1.3H515.1z"/>
			<path d="M519.2,168c0.4,0,1.1,0.1,1.8,0.1h6.5c0.6,0,1.1,0,1.3-0.1v1.5c-0.3,0-0.8,0-1.3,0H521c-0.7,0-1.4,0-1.8,0V168z"/>
			<path d="M530.1,173c1-0.7,1.7-1.8,2.1-2.9c0.3-1.1,0.3-3.4,0.3-4.8c0-0.4,0-0.7-0.1-1h1.4c0,0.1-0.1,0.5-0.1,1
				c0,1.4,0,3.9-0.4,5.1c-0.4,1.3-1.1,2.5-2.1,3.4L530.1,173z M535.6,173.1c0-0.2,0.1-0.5,0.1-0.8v-7.1c0-0.5-0.1-0.9-0.1-1h1.4
				c0,0.1-0.1,0.5-0.1,1v6.6c1-0.5,2.4-1.5,3.3-2.8l0.7,1c-1,1.4-2.7,2.6-4.1,3.3c-0.2,0.1-0.3,0.2-0.5,0.3L535.6,173.1z"/>
		</g>
		<g class="st28">
			<path d="M260.5,169.1c-0.6,2.1-2.1,3.5-3.8,4.2c-0.1-0.3-0.4-0.7-0.7-0.9c1.2-0.5,2.4-1.4,3-2.5h-2.6v-1h3.1l0.2,0L260.5,169.1z
				 M266.5,168.8c-0.8,0.6-1.8,1.3-2.6,1.7c0.9,0.8,2,1.4,3.3,1.7c-0.2,0.2-0.6,0.7-0.7,1c-1.8-0.6-3.3-1.7-4.3-3.2v2.3
				c0,0.6-0.1,0.9-0.6,1c-0.4,0.2-1.1,0.2-2,0.2c0-0.3-0.2-0.7-0.4-1c0.7,0,1.4,0,1.5,0c0.2,0,0.3,0,0.3-0.2v-4.3h-3.5v-4.4h3
				c0.2-0.4,0.4-0.8,0.5-1.1l1.3,0.2c-0.2,0.3-0.4,0.6-0.5,0.9h4v4.4h-3.6v0.2c0.3,0.6,0.6,1.1,1.1,1.6c0.8-0.5,1.7-1.2,2.3-1.8
				L266.5,168.8z M258.7,165.5h5.9v-0.9h-5.9V165.5z M258.7,167.2h5.9v-0.9h-5.9V167.2z"/>
			<path d="M278.9,172.4v0.9h-8.8v-0.9h3.8v-1.1h-3v-0.9h3v-0.9l-3.2,0.1l-0.1-0.9c0.4,0,0.8,0,1.3,0c0.2-0.3,0.5-0.8,0.7-1.1h-2.2
				c-0.1,1.9-0.3,4.3-1.4,6c-0.2-0.2-0.7-0.5-1-0.6c1.2-1.9,1.3-4.6,1.3-6.5v-3.4h8.9v2.9h-7.8v0.5v0.2h8.1v0.9h-2.2
				c0.8,0.5,1.8,1.3,2.2,1.8l-0.9,0.6c-0.2-0.2-0.4-0.4-0.6-0.6l-2.1,0.1v0.9h3v0.9h-3v1.1H278.9z M270.5,164.1v1h6.7v-1H270.5z
				 M273.9,167.7c-0.3,0.4-0.5,0.8-0.8,1.1c0.9,0,2-0.1,3-0.1c-0.3-0.2-0.6-0.4-0.9-0.6l0.6-0.4H273.9z"/>
		</g>
		<g class="st28">
			<path d="M32.3,271.5c-0.7,1.9-1.6,3.4-2.8,4.6c1.3,1,2.8,1.8,4.7,2.2c-0.3,0.3-0.6,0.8-0.8,1.1c-2-0.5-3.6-1.3-4.8-2.5
				c-1.3,1.1-2.9,1.9-4.8,2.5c-0.1-0.3-0.5-0.8-0.7-1.1c1.8-0.5,3.4-1.2,4.6-2.2c-1.2-1.3-2-2.8-2.7-4.7h-1.7v-1.1H28v-2h1.1v2H34
				v1.1H32.3z M26.2,271.5c0.6,1.5,1.3,2.8,2.4,3.8c1-1,1.8-2.3,2.3-3.8H26.2z"/>
			<path d="M45.1,274.7c0.1,0,0.1,0,0.2,0c0,0,0.1-0.1,0.1-0.2c0-0.1,0-0.5,0-0.9c0.2,0.1,0.4,0.3,0.6,0.3c0,0.4-0.1,0.9-0.1,1.1
				c-0.1,0.2-0.2,0.3-0.3,0.4c-0.1,0.1-0.3,0.1-0.5,0.1h-0.5c-0.2,0-0.5-0.1-0.6-0.2c-0.2-0.1-0.2-0.3-0.2-1v-2.1H43
				c0,0.3-0.1,0.7-0.2,1.1c0.4,0.2,0.7,0.5,0.9,0.7l-0.5,0.7c-0.2-0.2-0.4-0.4-0.7-0.6c-0.3,0.6-0.8,1.1-1.6,1.6
				c-0.1-0.1-0.2-0.3-0.4-0.4c-1.8,0.1-3.7,0.3-5,0.3l-0.1-0.7c0.6,0,1.3-0.1,2.2-0.1v-0.5H36v-0.6h1.6v-0.6h0.9c0-0.1,0-0.2,0-0.4
				v-0.3h-0.9c-0.2,0.7-0.7,1-1.8,1.3c-0.1-0.2-0.3-0.4-0.4-0.5c0.9-0.1,1.3-0.3,1.5-0.7h-1.2v-0.6h2.1v-0.4h-1.5v-0.6h1.5v-0.3h0.9
				v0.3h1.5v0.6h-1.5v0.4h2.1v0.6h-1.5v0.3c0,0.2,0,0.2,0.2,0.2h0.6c0.2,0,0.2,0,0.2-0.3c0.1,0.1,0.4,0.2,0.6,0.2
				c-0.1,0.5-0.3,0.7-0.7,0.7h-0.8c-0.3,0-0.5,0-0.6-0.1v0.4h1.7v0.6h-1.7v0.4l2-0.1v0.2c0.6-0.4,0.9-0.9,1.2-1.3
				c-0.4-0.2-0.7-0.4-1.1-0.5l0.5-0.6c0.3,0.1,0.6,0.3,0.9,0.4c0-0.2,0.1-0.4,0.1-0.7h-1.3v-0.8h1.3v-0.8H43v0.8h1.7v2.9
				c0,0.2,0,0.3,0,0.4c0,0,0.1,0.1,0.1,0.1H45.1z M35.3,277h10.6v0.7h-2.8c0.9,0.4,1.8,1,2.4,1.5l-0.8,0.5c-0.2-0.2-0.5-0.4-0.8-0.6
				c-2.9,0.2-5.9,0.3-7.9,0.4l-0.1-0.8l1.6-0.1c0.2-0.3,0.4-0.6,0.6-1h-2.9V277z M38.1,270h-2.7v-0.8h2.7v-0.7h1.1v0.7H42v-0.7h1.1
				v0.7h2.8v0.8h-2.8v0.5H42V270h-2.9v0.5h-1.1V270z M44.5,275.8v0.7h-7.7v-0.7H44.5z M39.3,277.7c-0.2,0.3-0.5,0.6-0.7,0.9
				c1.3,0,2.8-0.1,4.3-0.2c-0.3-0.2-0.6-0.3-0.9-0.4l0.5-0.3H39.3z"/>
			<path d="M55.4,273.7c0.8,0.9,1.7,1.6,2.8,2.1c-0.3,0.2-0.6,0.6-0.7,0.9c-0.6-0.3-1.2-0.7-1.8-1.1v3.8h-1.2v-0.3h-4v0.4h-1.1v-3.8
				c-0.5,0.5-1.1,0.9-1.8,1.2c-0.1-0.3-0.5-0.7-0.7-0.9c1.2-0.6,2.2-1.4,2.9-2.3h-2.7v-0.9h3.3c0.1-0.3,0.3-0.5,0.4-0.8h-2.7v-0.9h3
				c0.1-0.3,0.2-0.5,0.2-0.8h-3.6v-0.9h3.8c0-0.3,0.1-0.6,0.1-0.9l1.1,0.1c0,0.3-0.1,0.6-0.1,0.8h4.5v0.9h-4.7
				c-0.1,0.3-0.1,0.5-0.2,0.8h4.5v0.9h-2.6c0.1,0.3,0.3,0.5,0.4,0.8H58v0.9H55.4z M54.6,275.4h-4v1h4V275.4z M54.6,278.2v-1h-4v1
				H54.6z M51.3,273.7c-0.2,0.3-0.4,0.5-0.6,0.8h4c-0.2-0.3-0.4-0.5-0.6-0.8H51.3z M52.1,272c-0.1,0.3-0.2,0.5-0.3,0.8h1.8
				c-0.1-0.3-0.3-0.5-0.4-0.8H52.1z"/>
			<path d="M63.1,275.8c-0.2-0.3-0.5-0.9-0.9-1.4v5.2h-1.1v-4.9c-0.5,1.2-1.1,2.3-1.7,3c-0.1-0.3-0.4-0.8-0.6-1.1
				c0.8-0.8,1.5-2.3,2-3.5h-1.8v-1h2v-1.7c-0.6,0.1-1.1,0.2-1.7,0.3c0-0.2-0.2-0.6-0.3-0.9c1.4-0.2,3-0.6,3.9-1l0.7,0.9
				c-0.5,0.2-1,0.3-1.6,0.5v2h1.6v1h-1.6v0.2c0.3,0.3,1.3,1.5,1.5,1.8L63.1,275.8z M67.4,268.5c0,1.6,0,3.2-0.1,4.6
				c0.4,2.5,1.2,4.6,3,5.5c-0.2,0.2-0.5,0.6-0.7,0.9c-1.3-0.8-2.2-2.2-2.7-3.9c-0.5,1.7-1.3,3-2.9,4c-0.2-0.3-0.5-0.6-0.7-0.8
				c3.2-1.9,3.1-5.5,3.1-10.2H67.4z M63.7,274.2c0.5-0.7,0.7-2,0.8-3.1l1,0.1c0,1.2-0.3,2.5-0.8,3.3L63.7,274.2z M69.9,271.4
				c-0.4,1.1-0.9,2.3-1.3,3.1l-0.9-0.3c0.4-0.8,0.9-2.2,1.2-3.1L69.9,271.4z"/>
		</g>
		<g class="st28">
			<path d="M45.4,163.6v1.1H35.1v-1.1H45.4z M44.8,155.6v1.1h-9v-1.1H44.8z M43.9,159.5v1.1h-7.3v-1.1H43.9z"/>
			<path d="M51,159.7c-0.4,1.2-1.3,1.9-3.7,2.2c-0.1-0.2-0.3-0.7-0.5-0.9c2-0.2,2.8-0.6,3.1-1.4h-3v-0.9h4.7v-0.7h-3.3v-0.9h3.3
				v-0.7h1.1v0.7h3.5v0.9h-3.5v0.7h4.8v0.9h-3.3v0.5c0,0.3,0.1,0.3,0.5,0.3h1.5c0.3,0,0.4-0.1,0.4-0.6c0.2,0.1,0.6,0.3,0.9,0.3
				c-0.1,0.9-0.4,1.1-1.2,1.1h-1.7c-1.1,0-1.4-0.2-1.4-1.1v-0.5H51z M55.9,161.9c-0.6,0.9-1.3,1.5-2.3,2.1c1.2,0.3,2.6,0.5,4.1,0.6
				c-0.2,0.2-0.4,0.6-0.6,0.9c-1.8-0.1-3.5-0.4-4.8-1c-1.5,0.6-3.3,0.8-5.1,1c-0.1-0.3-0.3-0.7-0.4-0.9c1.5-0.1,3-0.3,4.3-0.6
				c-0.5-0.3-0.9-0.6-1.3-1c-0.5,0.3-1.1,0.5-1.7,0.7c-0.1-0.2-0.4-0.6-0.6-0.8c1.8-0.5,3.1-1.3,3.8-2.1l1.1,0.2
				c-0.2,0.2-0.4,0.4-0.6,0.6H55l0.2-0.1L55.9,161.9z M49.7,156.2H47v-0.9h2.7v-0.8h1.1v0.8h3v-0.8h1.1v0.8h2.7v0.9h-2.7v0.7h-1.1
				v-0.7h-3v0.7h-1.1V156.2z M50.7,162.4c0.4,0.4,1,0.8,1.6,1.1c0.8-0.3,1.4-0.7,1.9-1.2h-3.4L50.7,162.4z"/>
			<path d="M65.7,161.9c1.1,1,2.7,2,4.1,2.5c-0.3,0.2-0.6,0.7-0.8,1c-1.5-0.6-3.1-1.7-4.2-2.9v3.1h-1.2v-3c-1.1,1.2-2.7,2.3-4.1,2.9
				c-0.2-0.3-0.5-0.7-0.8-0.9c1.4-0.5,3-1.5,4-2.5h-2.7v-4.4h3.6v-0.9h-4.6v-1h4.6v-1.1h1.2v1.1h4.7v1h-4.7v0.9h3.7v4.4H65.7z
				 M61.2,159.3h2.5v-1h-2.5V159.3z M61.2,161h2.5v-1h-2.5V161z M64.8,158.3v1h2.6v-1H64.8z M67.5,160.1h-2.6v1h2.6V160.1z"/>
			<path d="M74.1,162.4c-0.6,0.9-1.5,2-2.3,2.7c-0.2-0.2-0.6-0.5-0.9-0.7c0.8-0.6,1.7-1.6,2.1-2.4L74.1,162.4z M81.5,156.8H71.1
				v-1.1h4.6v-1.3h1.2v1.3h4.6V156.8z M76.8,161.4v2.8c0,0.6-0.1,0.9-0.6,1.1c-0.5,0.2-1.2,0.2-2.2,0.2c0-0.3-0.2-0.7-0.4-1.1
				c0.7,0,1.5,0,1.7,0c0.2,0,0.3,0,0.3-0.2v-2.8h-3.2v-3.6h7.7v3.6H76.8z M73.6,160.5H79v-1.7h-5.4V160.5z M79.4,162
				c0.8,0.8,1.7,1.8,2.2,2.6l-1.1,0.6c-0.4-0.7-1.4-1.8-2.1-2.6L79.4,162z"/>
			<path d="M43.2,169.7v5c0,2.9-1.6,3.9-3.7,3.9c-2.1,0-3.7-1.1-3.7-3.9v-5h1.4v5.1c0,2,1,2.6,2.3,2.6s2.3-0.6,2.3-2.6v-5.1H43.2z"
				/>
			<path d="M46.5,169.7h5.9v1.2h-4.5v2.7h3.6v1.2h-3.6v3.8h-1.4V169.7z"/>
			<path d="M56.3,178.7c-1.4,0-2.3-0.6-2.9-1.5l1-0.7c0.4,0.7,1,1,1.7,1c1,0,1.6-0.5,1.6-1.8v-6h1.4v6.1
				C59.1,177.4,58.3,178.7,56.3,178.7z"/>
			<path d="M72.2,175.3c-0.5,0.4-1.2,0.9-1.7,1.3c0.5,0.9,1.1,1.5,2,2c-0.2,0.2-0.6,0.6-0.7,0.9c-1.8-1-2.7-2.9-3.2-5.3h-0.9v3.7
				c0.6-0.1,1.3-0.3,2-0.4l0.1,1c-1.3,0.3-2.7,0.7-3.8,0.9l-0.3-1c-1.5,0.3-3,0.6-4.1,0.8l-0.3-1c0.6-0.1,1.2-0.2,2-0.3v-3.4h-1.8
				v-1h1.8v-1.1h-1.3v-0.5c-0.1,0.1-0.2,0.2-0.3,0.3c-0.2-0.2-0.5-0.6-0.7-0.7c1.1-0.9,1.9-2.1,2.3-3h0.9c0.8,0.6,1.7,1.5,2.2,2.2
				l-0.7,0.8v0.9h-1.4v1.1H66v1h-1.7v3.3c0.6-0.1,1.2-0.2,1.8-0.3l0.1,0.8l0.4-0.1v-9.1h5.1v5.2h-2.2c0.1,0.6,0.3,1.1,0.5,1.6
				c0.5-0.4,1-0.8,1.4-1.2L72.2,175.3z M62.4,175c0.2,0.7,0.4,1.5,0.5,2.1l-0.8,0.2c0-0.6-0.2-1.5-0.4-2.1L62.4,175z M65.6,171.4
				c-0.4-0.5-1.1-1.3-1.7-1.9c-0.3,0.6-0.8,1.3-1.4,1.9H65.6z M64.6,177c0.2-0.6,0.4-1.5,0.5-2.1l0.9,0.2c-0.2,0.7-0.5,1.5-0.7,2.1
				L64.6,177z M67.6,169.9v1.1h3v-1.1H67.6z M67.6,173.2h3V172h-3V173.2z"/>
			<path d="M77.4,171.4c-0.4,0.6-0.8,1.2-1.3,1.8v6.2H75v-5c-0.4,0.4-0.8,0.8-1.2,1.1c-0.1-0.2-0.5-0.7-0.8-0.9
				c1.2-0.9,2.5-2.2,3.3-3.6L77.4,171.4z M77,168.9c-0.8,1.1-2.1,2.3-3.2,3c-0.1-0.3-0.4-0.7-0.6-0.9c1-0.6,2.1-1.7,2.7-2.6
				L77,168.9z M84.2,173.5h-1.7v4.6c0,0.6-0.1,1-0.6,1.1c-0.4,0.2-1.2,0.2-2.3,0.2c0-0.3-0.2-0.8-0.4-1.1c0.8,0,1.6,0,1.8,0
				c0.2,0,0.3-0.1,0.3-0.2v-4.6h-3.8v-1.1h6.7V173.5z M83.8,170.2H78v-1.1h5.8V170.2z"/>
		</g>
		<g class="st28">
			<path d="M162.9,46.6c-0.3,1.2-0.8,2.1-1.4,3c1,0.8,2.3,1,3.9,1c0.5,0,3,0,3.7,0c-0.2,0.2-0.3,0.7-0.4,1h-3.4
				c-1.9,0-3.4-0.3-4.5-1.3c-0.6,0.7-1.4,1.2-2.2,1.5c-0.1-0.2-0.4-0.7-0.6-0.8c0.8-0.3,1.6-0.8,2.2-1.4c-0.3-0.4-0.5-0.9-0.7-1.4
				c-0.3,0.4-0.6,0.7-0.9,1c-0.1-0.2-0.5-0.6-0.7-0.8c0.8-0.6,1.5-1.6,1.9-2.7h-1.6v-0.9h2v-0.7h-1.7v-0.8h1.7v-0.7h-1.8v-0.9h1.8
				v-0.9h1v0.9h1.8v0.9h-1.8v0.7h1.6v0.4c0.7-0.7,1.3-1.7,1.6-2.8l1,0.2c-0.1,0.4-0.3,0.7-0.4,1.1h4c0,0,0,0.3,0,0.5
				c-0.1,5-0.2,6.6-0.5,7.1c-0.2,0.3-0.4,0.4-0.8,0.5c-0.3,0-0.8,0-1.2,0c0-0.3-0.1-0.7-0.3-0.9c0.4,0,0.8,0,1,0
				c0.2,0,0.3,0,0.3-0.2c0.2-0.3,0.3-1.8,0.4-6.1h-3.4c-0.2,0.3-0.4,0.7-0.7,0.9l0.3-0.1c0.3,0.5,0.5,1.1,0.6,1.5l-0.7,0.2
				c0-0.4-0.2-1-0.5-1.4c-0.2-0.1-0.5-0.3-0.7-0.5v0.3h-1.6v0.7h1.9v0.9h-2.2c-0.1,0.3-0.2,0.5-0.3,0.7h1.5l0.2,0L162.9,46.6z
				 M160.1,47.2c0.2,0.6,0.5,1.2,0.8,1.6c0.3-0.5,0.6-1,0.8-1.6L160.1,47.2L160.1,47.2z M165,49.8v-2.4c-0.5,0.8-1,1.5-1.5,1.9
				c-0.1-0.2-0.4-0.5-0.6-0.7c0.7-0.5,1.4-1.3,1.9-2.2h-1.5v-0.8h1.8v-2.2h0.8v2.2h1.7v0.8h-1.6c0.4,0.3,1.3,1,1.5,1.2l-0.5,0.8
				c-0.2-0.3-0.8-0.9-1.2-1.3v2.6H165z M167.4,43.9c-0.2,0.6-0.5,1.1-0.7,1.5l-0.7-0.2c0.2-0.4,0.5-1.1,0.7-1.6L167.4,43.9z"/>
			<path d="M175.7,49.5h-4.2v0.9h-0.9v-9.1h5.1V49.5z M171.5,42.3v2.6h1.2v-2.6H171.5z M171.5,48.5h1.2v-2.7h-1.2V48.5z M174.7,42.3
				h-1.2v2.6h1.2V42.3z M174.7,48.5v-2.7h-1.2v2.7H174.7z M181.2,43.2h-1.6v7.2c0,0.6-0.1,1-0.6,1.2c-0.5,0.2-1.2,0.2-2.3,0.2
				c0-0.3-0.2-0.8-0.4-1.1c0.8,0,1.6,0,1.8,0c0.2,0,0.3-0.1,0.3-0.3v-7.2h-2.5v-1.1h5.3V43.2z"/>
			<path d="M192.9,48.5h-4.7v2c0,0.6-0.2,0.9-0.6,1.1c-0.5,0.2-1.2,0.2-2.2,0.2c-0.1-0.3-0.3-0.8-0.5-1.1c0.8,0,1.7,0,1.9,0
				c0.2,0,0.3-0.1,0.3-0.2v-2h-4.7v-1h4.7v-0.8h0.6c0.5-0.3,0.9-0.6,1.4-0.9h-4.6v-1h5.6l0.2-0.1l0.7,0.5c-0.7,0.8-1.8,1.5-2.8,2.1
				v0.2h4.7V48.5z M183.6,45.4h-1v-2.7h1.7c-0.2-0.4-0.6-1-0.9-1.4l1-0.4c0.4,0.5,0.9,1.2,1.1,1.6l-0.4,0.2h2.2
				c-0.2-0.5-0.5-1.1-0.8-1.6l1-0.4c0.4,0.5,0.8,1.3,1,1.8l-0.6,0.2h2c0.4-0.6,0.9-1.3,1.2-1.9l1.2,0.4c-0.3,0.5-0.7,1-1.1,1.5h1.7
				v2.7h-1.1v-1.8h-8V45.4z"/>
			<path d="M204.6,41.2v10.5h-1.1v-0.5h-7.9v0.5h-1V41.2H204.6z M203.5,50.3v-8h-7.9v8H203.5z M203,47.6c-0.4,0.3-0.9,0.7-1.4,0.9
				c0.5,0.3,1.1,0.5,1.7,0.7c-0.2,0.2-0.5,0.5-0.6,0.7c-1-0.3-2-0.9-2.8-1.6V50h-1v-1.5c-0.7,0.5-1.6,0.9-2.4,1.2
				c-0.1-0.2-0.4-0.6-0.6-0.7c1.1-0.3,2.2-0.8,3-1.5h-2.1v-2h5.5v1.8L203,47.6z M203,45h-6.8v-0.7h2.9v-0.6h-2.3V43h2.3v-0.6h1V43
				h2.4v0.6h-2.4v0.6h2.9V45z M197.8,46.8h3.6V46h-3.6V46.8z M200.2,47.5c0.2,0.2,0.5,0.5,0.8,0.7c0.3-0.2,0.7-0.5,1-0.7L200.2,47.5
				L200.2,47.5z"/>
			<path d="M167.2,58.6c-0.4,1.8-0.9,3.1-1.8,4.2c1.3,0.6,2.5,1.3,3.4,1.9l-0.8,1c-0.8-0.6-2.1-1.4-3.4-2.1c-1.3,1-3.1,1.7-5.6,2
				c-0.1-0.3-0.3-0.8-0.6-1.1c2.2-0.3,3.8-0.7,4.9-1.5c-0.8-0.4-1.6-0.7-2.4-1l-0.2,0.5l-1.1-0.4c0.5-1,1-2.3,1.6-3.6h-2.9v-1.1h3.3
				c0.4-1,0.8-1.9,1.1-2.8l1.2,0.2c-0.3,0.8-0.6,1.7-1,2.6h6.2v1.1H167.2z M162.4,58.6c-0.4,0.9-0.7,1.7-1.1,2.5
				c0.9,0.3,1.9,0.7,2.9,1.2c0.8-0.9,1.3-2.1,1.7-3.6H162.4z"/>
			<path d="M181.1,61.1h-4.8v3.3c0,0.7-0.2,1-0.7,1.2c-0.5,0.2-1.3,0.2-2.4,0.2c-0.1-0.3-0.3-0.8-0.5-1.2c0.9,0,1.8,0,2.1,0
				c0.3,0,0.3-0.1,0.3-0.3v-3.3h-4.8V60h4.8v-1.9h0.6c0.7-0.4,1.5-0.9,2.1-1.5h-6.4v-1.1h7.5l0.3-0.1l0.8,0.6c-1,1-2.5,2.2-3.9,2.9
				v1h4.8V61.1z"/>
			<path d="M192.8,55.8v1h-10.4v-1h4.5v-1.1h1.1v1.1H192.8z M192.4,64.5c0,0.6-0.1,0.9-0.5,1.1c-0.4,0.2-1,0.2-2,0.2
				c0-0.3-0.2-0.7-0.3-1h-3.2v0.6h-1v-3.2h4.5v2.6c0.5,0,1,0,1.1,0c0.2,0,0.3,0,0.3-0.2v-3H184v4.3h-1.1v-5.2h9.4V64.5z M190.8,57.3
				v2.5h-6.5v-2.5H190.8z M189.7,58.1h-4.2v1h4.2V58.1z M188.9,62.9h-2.6v1h2.6V62.9z"/>
			<path d="M199.6,58.8c0.8,0,1.4,0.6,1.4,1.4s-0.6,1.4-1.4,1.4s-1.4-0.6-1.4-1.4S198.9,58.8,199.6,58.8z"/>
			<path d="M216.5,56.8v5.7h-1.2v-0.6h-3.1v3.8H211v-3.8h-3.1v0.7h-1.1v-5.8h4.2v-2.1h1.2v2.1H216.5z M211,60.8v-2.9h-3.1v2.9H211z
				 M215.3,60.8v-2.9h-3.1v2.9H215.3z"/>
		</g>
		<g class="st28">
			<path d="M243.1,35.6c-0.3,1.2-0.8,2.1-1.4,3c1,0.8,2.3,1,3.9,1c0.5,0,3,0,3.7,0c-0.2,0.2-0.3,0.7-0.4,1h-3.4
				c-1.9,0-3.4-0.3-4.5-1.3c-0.6,0.7-1.4,1.2-2.2,1.5c-0.1-0.2-0.4-0.7-0.6-0.8c0.8-0.3,1.6-0.8,2.2-1.4c-0.3-0.4-0.5-0.9-0.7-1.4
				c-0.3,0.4-0.6,0.7-0.9,1c-0.1-0.2-0.5-0.6-0.7-0.8c0.8-0.6,1.5-1.6,1.9-2.7h-1.6v-0.9h2v-0.7h-1.7v-0.8h1.7v-0.7h-1.8v-0.9h1.8
				v-0.9h1v0.9h1.8v0.9h-1.8v0.7h1.6v0.4c0.7-0.7,1.3-1.7,1.6-2.8l1,0.2c-0.1,0.4-0.3,0.7-0.4,1.1h4c0,0,0,0.3,0,0.5
				c-0.1,5-0.2,6.6-0.5,7.1c-0.2,0.3-0.4,0.4-0.8,0.5c-0.3,0-0.8,0-1.2,0c0-0.3-0.1-0.7-0.3-0.9c0.4,0,0.8,0,1,0
				c0.2,0,0.3,0,0.3-0.2c0.2-0.3,0.3-1.8,0.4-6.1h-3.4c-0.2,0.3-0.4,0.7-0.7,0.9l0.3-0.1c0.3,0.5,0.5,1.1,0.6,1.5l-0.7,0.2
				c0-0.4-0.2-1-0.5-1.4c-0.2-0.1-0.5-0.3-0.7-0.5v0.3h-1.6v0.7h1.9v0.9h-2.2c-0.1,0.3-0.2,0.5-0.3,0.7h1.5l0.2,0L243.1,35.6z
				 M240.3,36.2c0.2,0.6,0.5,1.2,0.8,1.6c0.3-0.5,0.6-1,0.8-1.6L240.3,36.2L240.3,36.2z M245.2,38.8v-2.4c-0.5,0.8-1,1.5-1.5,1.9
				c-0.1-0.2-0.4-0.5-0.6-0.7c0.7-0.5,1.4-1.3,1.9-2.2h-1.5v-0.8h1.8v-2.2h0.8v2.2h1.7v0.8h-1.6c0.4,0.3,1.3,1,1.5,1.2l-0.5,0.8
				c-0.2-0.3-0.8-0.9-1.2-1.3v2.6H245.2z M247.6,32.9c-0.2,0.6-0.5,1.1-0.7,1.5l-0.7-0.2c0.2-0.4,0.5-1.1,0.7-1.6L247.6,32.9z"/>
			<path d="M255.9,38.5h-4.2v0.9h-0.9v-9.1h5.1V38.5z M251.7,31.3v2.6h1.2v-2.6H251.7z M251.7,37.5h1.2v-2.7h-1.2V37.5z M254.9,31.3
				h-1.2v2.6h1.2V31.3z M254.9,37.5v-2.7h-1.2v2.7H254.9z M261.4,32.2h-1.6v7.2c0,0.6-0.1,1-0.6,1.2c-0.5,0.2-1.2,0.2-2.3,0.2
				c0-0.3-0.2-0.8-0.4-1.1c0.8,0,1.6,0,1.8,0c0.2,0,0.3-0.1,0.3-0.3v-7.2h-2.5v-1.1h5.3V32.2z"/>
			<path d="M265.4,32.9c-0.4,1.8-1.1,3.9-2.1,5.3c-0.3-0.2-0.8-0.5-1.1-0.6c1-1.2,1.6-3.3,1.9-4.9L265.4,32.9z M268.5,29.9v9.4
				c0,0.7-0.2,1.1-0.7,1.3c-0.5,0.2-1.2,0.2-2.4,0.2c-0.1-0.3-0.3-0.8-0.4-1.2c0.8,0,1.7,0,1.9,0c0.3,0,0.3-0.1,0.3-0.3v-9.4H268.5z
				 M271.2,32.5c1,1.7,2,3.9,2.3,5.3l-1.2,0.5c-0.3-1.4-1.2-3.6-2.2-5.4L271.2,32.5z"/>
		</g>
		<g class="st28">
			<path d="M306.5,381.4c-0.4,1.5-0.9,2.9-1.6,4.1c0.3,1,0.5,1.6,0.9,1.6c0.2,0,0.3-0.6,0.3-1.9c0.2,0.2,0.6,0.5,0.8,0.6
				c-0.1,1.8-0.4,2.3-1.3,2.3c-0.6,0-1.1-0.6-1.5-1.6c-0.5,0.6-1.2,1.2-1.9,1.7c-0.1-0.2-0.6-0.6-0.8-0.8c0.9-0.6,1.7-1.3,2.3-2.1
				c-0.3-1.4-0.5-3.3-0.6-5.3h-2.6v1.5h2.2c0,0,0,0.3,0,0.4c0,2.7-0.1,3.7-0.3,4c-0.2,0.2-0.4,0.3-0.6,0.3c-0.2,0-0.6,0-1,0
				c0-0.3-0.1-0.7-0.3-0.9c0.4,0,0.7,0,0.8,0s0.2,0,0.3-0.1c0.1-0.2,0.2-0.9,0.2-2.9h-1.2v0.4c0,1.7-0.2,4-1.5,5.5
				c-0.2-0.2-0.6-0.6-0.8-0.7c0.6-0.6,0.9-1.4,1.1-2.2c-1.1,0.5-2.3,0.9-3.3,1.3l-0.4-1.1c0.4-0.1,0.8-0.3,1.3-0.5v-4h-1.2v-1h1.2
				v-2.7h1v2.7h1.1v1h-1.1v3.6l1.1-0.4l0.2,1c0.2-0.9,0.2-1.8,0.2-2.6v-3.8h3.6c0-0.6,0-1.2,0-1.8h1.1c0,0.6,0,1.2,0,1.8h1.3
				c-0.3-0.4-0.8-0.9-1.2-1.3l0.8-0.5c0.5,0.4,1.1,1,1.3,1.4l-0.6,0.4h0.8v1h-2.4c0.1,1.5,0.2,2.8,0.3,3.9c0.4-0.8,0.7-1.7,0.9-2.7
				L306.5,381.4z"/>
			<path d="M315,378.9v1.5h3.1v7.6H317v-0.7h-7.4v0.7h-1.1v-7.6h2.8v-1.5H308v-1.1h10.5v1.1H315z M317,386.4v-2
				c-0.2,0.2-0.4,0.2-0.8,0.2h-1.1c-1,0-1.2-0.3-1.2-1.3v-1.8h-1.5v0.4c0,1.1-0.4,2.5-2.1,3.3c-0.1-0.2-0.5-0.5-0.7-0.7v1.8H317z
				 M309.6,381.5v3c1.5-0.7,1.8-1.8,1.8-2.6v-0.3H309.6z M313.9,378.9h-1.5v1.5h1.5V378.9z M317,381.5h-2v1.8c0,0.3,0,0.3,0.3,0.3
				h0.8c0.2,0,0.3-0.1,0.3-0.8c0.1,0.1,0.3,0.2,0.6,0.3V381.5z"/>
			<path d="M326.1,381.6c0.8,2.5,2.3,4.5,4.6,5.5c-0.3,0.2-0.6,0.7-0.8,1c-2.2-1-3.7-3-4.6-5.5c-0.6,2.2-1.9,4.2-4.6,5.5
				c-0.2-0.3-0.5-0.7-0.9-0.9c2.9-1.2,4-3.4,4.5-5.6H320v-1.2h4.5c0.1-1.2,0.1-2.4,0.1-3.3h1.2c0,1,0,2.1-0.2,3.3h4.8v1.2H326.1z"/>
			<path d="M342.5,384.9h-4.7v2c0,0.6-0.2,0.9-0.6,1.1c-0.5,0.2-1.2,0.2-2.2,0.2c-0.1-0.3-0.3-0.8-0.5-1.1c0.8,0,1.7,0,1.9,0
				c0.2,0,0.3-0.1,0.3-0.2v-2H332v-1h4.7V383h0.6c0.5-0.3,0.9-0.6,1.4-0.9H334v-1h5.6l0.2-0.1l0.7,0.5c-0.7,0.8-1.8,1.5-2.8,2.1v0.2
				h4.7V384.9z M333.3,381.8h-1v-2.7h1.7c-0.2-0.4-0.6-1-0.9-1.4l1-0.4c0.4,0.5,0.9,1.2,1.1,1.6l-0.4,0.2h2.2
				c-0.2-0.5-0.5-1.1-0.8-1.6l1-0.4c0.4,0.5,0.8,1.3,1,1.8l-0.6,0.2h2c0.4-0.6,0.9-1.3,1.2-1.9l1.2,0.4c-0.3,0.5-0.7,1-1.1,1.5h1.7
				v2.7h-1.1v-1.8h-8V381.8z"/>
		</g>
		<g class="st28">
			<path d="M493.9,381.2v10.5h-1.2v-0.6h-7.6v0.6h-1.1v-10.5H493.9z M492.7,390v-7.8h-7.6v7.8H492.7z M492.1,388.2v0.9h-6.4v-0.9
				h2.6v-1.8h-2.1v-0.9h2.1V384h-2.4v-1h6v1h-2.5v1.5h2.2v0.9h-2.2v1.8h1.7c-0.2-0.4-0.7-0.9-1.1-1.3l0.7-0.4
				c0.4,0.4,0.9,0.9,1.1,1.2l-0.7,0.4H492.1z"/>
			<path d="M506.3,390.1v1.1h-10.7v-1.1h6c0.6-1.5,1.2-3.8,1.5-5.6l1.3,0.2c-0.4,1.8-1.1,3.9-1.6,5.4H506.3z M505.9,384h-10v-1.1
				h4.3v-2.2h1.2v2.2h4.5V384z M498.6,389.6c-0.1-1.3-0.5-3.3-1.1-4.8l1.1-0.3c0.6,1.5,1,3.5,1.2,4.7L498.6,389.6z"/>
			<path d="M509.1,386.1c0,1.7-0.1,4-1,5.6c-0.2-0.2-0.6-0.4-0.8-0.5c0.8-1.5,0.9-3.5,0.9-5.1v-3.3h2.2v-2.1h1v0.7h2.6v0.8h-2.6v0.6
				h2.1l0.2,0l0.6,0.1c-0.1,0.6-0.3,1.4-0.5,1.8l-0.8-0.2c0.1-0.3,0.2-0.6,0.3-0.9h-1.9v0.6l1.4-0.2l0.1,0.6l-1.5,0.2v0.2
				c0,0.3,0.1,0.3,0.4,0.3h1.3c0.3,0,0.3-0.1,0.3-0.6c0.2,0.1,0.5,0.2,0.7,0.2c-0.1,0.7-0.3,0.9-0.9,0.9h-1.5
				c-0.9,0-1.2-0.2-1.2-0.9V385l-1.1,0.1l-0.1-0.6l1.2-0.1v-0.7h-1.4V386.1z M514,387.8c-0.5,0.4-1,0.8-1.4,1.1
				c0.6,0.3,1.6,1,1.9,1.2l-0.6,0.8c-0.3-0.2-0.8-0.7-1.3-1c0,0.7-0.1,1.3-0.5,1.5c-0.3,0.2-0.5,0.3-0.9,0.3c-0.2,0-0.4,0-0.7,0
				c0-0.2-0.1-0.6-0.3-0.8c0.3,0,0.6,0,0.8,0c0.2,0,0.4,0,0.5-0.2c0.2-0.2,0.3-0.5,0.3-1c-0.8,0.6-1.8,1.2-2.8,1.5
				c-0.1-0.2-0.3-0.4-0.4-0.6c1-0.3,2.3-0.9,3-1.6c0-0.1-0.1-0.3-0.2-0.4c-0.6,0.4-1.4,0.8-2,1.1c-0.1-0.2-0.3-0.4-0.4-0.6
				c0.7-0.2,1.6-0.6,2.1-1c-0.1-0.1-0.2-0.2-0.3-0.3c-0.4,0.2-0.9,0.4-1.3,0.5c-0.1-0.2-0.2-0.4-0.3-0.6c0.7-0.2,1.5-0.5,2.1-0.9
				h-1.9v-0.7h4.7v0.7h-1.9c-0.2,0.2-0.4,0.3-0.7,0.5c0.3,0.2,0.5,0.5,0.6,0.8c0.4-0.3,0.8-0.8,1.1-1.1L514,387.8z M515.6,388.8h-1
				v-6.7h1V388.8z M517.9,381v9.3c0,0.6-0.1,0.9-0.5,1.1c-0.4,0.2-1,0.2-1.9,0.2c0-0.3-0.2-0.8-0.3-1.1c0.6,0,1.3,0,1.5,0
				c0.2,0,0.2-0.1,0.2-0.2V381H517.9z"/>
			<path d="M523.3,387.8c-1.2,0.6-2.5,1.3-3.5,1.7l-0.4-1.1c0.4-0.2,1-0.4,1.6-0.6v-3.6h-1.3v-1.1h1.3v-2.4h1v2.4h1.2v1.1h-1.2v3.1
				c0.4-0.2,0.7-0.3,1.1-0.5L523.3,387.8z M525.6,386.4c-0.1,0.3-0.3,0.5-0.4,0.7h5c0,0,0,0.3,0,0.4c-0.2,2.4-0.4,3.3-0.7,3.7
				c-0.2,0.2-0.4,0.3-0.7,0.3c-0.3,0-0.7,0-1.2,0c0-0.3-0.1-0.7-0.3-0.9c0.4,0,0.8,0,0.9,0c0.2,0,0.3,0,0.4-0.1
				c0.2-0.2,0.3-0.9,0.5-2.6h-0.7c-0.5,1.4-1.4,2.9-2.4,3.6c-0.2-0.2-0.5-0.5-0.8-0.6c0.9-0.6,1.8-1.8,2.3-3h-0.9
				c-0.6,1.2-1.8,2.5-2.9,3.1c-0.2-0.2-0.5-0.5-0.7-0.7c0.9-0.5,1.9-1.5,2.6-2.5h-1c-0.5,0.5-1,0.9-1.5,1.3
				c-0.2-0.2-0.5-0.5-0.8-0.7c0.9-0.5,1.7-1.3,2.3-2.2h-1.5v-0.9h7.5v0.9H525.6z M529.6,384.9h-5.5V381h5.5V384.9z M528.6,381.8
				h-3.5v0.8h3.5V381.8z M528.6,383.3h-3.5v0.8h3.5V383.3z"/>
		</g>
		<g class="st28">
			<path d="M386.3,233.3c0-3.9,3.2-7,7-7c3.9,0,7,3.1,7,7c0,3.9-3.2,7-7,7C389.5,240.4,386.3,237.2,386.3,233.3z M399.9,233.3
				c0-3.6-2.9-6.5-6.5-6.5c-3.6,0-6.5,3-6.5,6.5c0,3.6,2.9,6.5,6.5,6.5C396.9,239.9,399.9,236.9,399.9,233.3z M392.9,231h-1.6v-1
				c0.8-0.1,1.4-0.4,2-0.7h1.2v7.8h-1.5V231z"/>
		</g>
		<g class="st28">
			<path d="M94.7,147.2c0-3.9,3.2-7,7-7c3.9,0,7,3.1,7,7c0,3.9-3.2,7-7,7C97.9,154.3,94.7,151.1,94.7,147.2z M108.3,147.2
				c0-3.6-2.9-6.5-6.5-6.5c-3.6,0-6.5,3-6.5,6.5c0,3.6,2.9,6.5,6.5,6.5C105.4,153.8,108.3,150.8,108.3,147.2z M101.3,144.9h-1.6v-1
				c0.8-0.1,1.4-0.4,2-0.7h1.2v7.8h-1.5V144.9z"/>
		</g>
		<g class="st28">
			<path d="M386.3,208.7c0-3.9,3.2-7,7-7s7,3.1,7,7c0,3.9-3.2,7-7,7C389.5,215.7,386.3,212.5,386.3,208.7z M399.9,208.7
				c0-3.6-2.9-6.5-6.5-6.5c-3.6,0-6.5,3-6.5,6.5c0,3.6,2.9,6.5,6.5,6.5S399.9,212.3,399.9,208.7z M390.7,211.6
				c2.4-2.1,3.8-3.4,3.8-4.6c0-0.8-0.5-1.3-1.4-1.3c-0.7,0-1.3,0.4-1.7,0.9l-0.9-0.8c0.8-0.8,1.7-1.2,2.8-1.2c1.6,0,2.7,1,2.7,2.4
				c0,1.4-1.4,2.9-3.1,4.4c0.4,0,1-0.1,1.5-0.1h1.9v1.3h-5.7V211.6z"/>
		</g>
		<g class="st28">
			<path d="M400.4,156.2c0,3.9-3.2,7-7,7c-3.9,0-7-3.1-7-7c0-3.9,3.2-7,7-7C397.2,149.2,400.4,152.3,400.4,156.2z M399.9,156.2
				c0-3.6-2.9-6.5-6.5-6.5c-3.6,0-6.5,3-6.5,6.5c0,3.6,2.9,6.5,6.5,6.5C396.9,162.7,399.9,159.8,399.9,156.2z M395.1,153.8
				c-0.3-0.3-0.9-0.6-1.4-0.6c-1.1,0-2,0.7-2.1,2.8c0.5-0.6,1.3-0.9,2-0.9c1.4,0,2.5,0.8,2.5,2.4c0,1.6-1.2,2.6-2.7,2.6
				c-1.7,0-3.2-1.2-3.2-3.9c0-3,1.6-4.3,3.5-4.3c1,0,1.8,0.4,2.3,0.9L395.1,153.8z M394.7,157.6c0-0.9-0.5-1.4-1.4-1.4
				c-0.5,0-1.1,0.2-1.6,0.9c0.2,1.4,0.8,1.9,1.7,1.9C394.1,159,394.7,158.5,394.7,157.6z"/>
		</g>
		<g class="st28">
			<path d="M560.1,191.8c0,0.7-0.2,1-0.6,1.2c-0.4,0.2-1.2,0.2-2.2,0.2c0-0.3-0.2-0.8-0.4-1.1c0.8,0,1.6,0,1.8,0
				c0.2,0,0.3-0.1,0.3-0.3v-6.5h-3.2c0,0.5-0.1,1-0.2,1.5c1.1,1,2.5,2.3,3.2,3.2l-0.9,0.7c-0.6-0.7-1.6-1.9-2.6-2.8
				c-0.5,1.1-1.3,2.1-2.8,3c-0.1-0.2-0.5-0.6-0.8-0.8c2.5-1.3,2.9-3.2,3-4.7h-3.1v7.9h-1.1v-9h4.2v-2h1.2v2h4.3V191.8z"/>
			<path d="M554.6,197.8v0.9c0,2-0.2,4.7-1.9,6.3c-0.2-0.2-0.6-0.5-0.8-0.7c0.8-0.8,1.2-1.9,1.4-2.9c-1.1,0.5-2.3,1.1-3.3,1.5
				l-0.4-1.1c0.4-0.1,0.9-0.3,1.5-0.6V198h-1.2V197h1.2v-2.7h1v2.7h1.1v1.1h-1.1v2.8l1-0.4l0.2,0.8c0.2-0.9,0.2-1.8,0.2-2.6v-4.2
				h6.8v3.3H554.6z M554.6,195.6v1.2h4.7v-1.2H554.6z M560.4,201.7v3.4h-1v-0.5h-3.7v0.5h-1v-3.4h1v2h1.4v-2.5H555v-2.7h0.9v1.8h1.2
				v-2.2h1v2.2h1.3v-1.8h0.9v2.7h-2.2v2.5h1.4v-2H560.4z"/>
			<path d="M552.5,214.6c0.5,0.8,1.5,1.2,2.8,1.3c1.4,0.1,4.1,0,5.6-0.1c-0.1,0.3-0.3,0.8-0.4,1.1c-1.4,0.1-3.9,0.1-5.3,0
				c-1.5-0.1-2.5-0.5-3.3-1.4c-0.6,0.5-1.2,1-1.8,1.5l-0.5-1.1c0.6-0.3,1.2-0.8,1.8-1.2v-2.9h-1.6v-1h2.7V214.6z M551.9,209.1
				c-0.4-0.6-1.2-1.4-2-2l0.8-0.7c0.7,0.5,1.6,1.3,2.1,1.9L551.9,209.1z M554.6,215.2h-1v-6.1h3.1c-0.6-0.3-1.4-0.6-2-0.9l0.7-0.6
				c0.5,0.2,1,0.4,1.5,0.6c0.5-0.2,0.9-0.5,1.3-0.8h-4.6v-0.9h5.7l0.2-0.1l0.7,0.5c-0.6,0.6-1.5,1.2-2.3,1.6
				c0.3,0.1,0.6,0.3,0.8,0.4h1.5v5.1c0,0.5-0.1,0.8-0.4,0.9c-0.3,0.1-0.8,0.2-1.6,0.2c0-0.3-0.2-0.6-0.3-0.9c0.5,0,1,0,1.1,0
				c0.1,0,0.2,0,0.2-0.2v-0.8h-1.8v1.8h-1v-1.8h-1.7V215.2z M554.6,209.9v0.9h1.7v-0.9H554.6z M556.4,212.5v-0.9h-1.7v0.9H556.4z
				 M559.2,209.9h-1.8v0.9h1.8V209.9z M559.2,212.5v-0.9h-1.8v0.9H559.2z"/>
			<path d="M553.5,218.6c-0.2,0.7-0.4,2.1-0.5,2.9c0.5-1.1,1.6-2.3,3-2.3c1.6,0,2.7,1.6,2.7,4.1c0,3.3-2,4.7-5,5.3l-0.7-1.1
				c2.5-0.4,4.4-1.3,4.4-4.2c0-1.8-0.6-3-1.7-3c-1.4,0-2.7,2.1-2.8,3.6c0,0.4,0,0.8,0,1.3l-1.1,0.1c-0.1-0.4-0.1-1.1-0.1-1.9
				c0-1.1,0.2-2.7,0.3-3.7c0.1-0.4,0.1-0.8,0.1-1.1L553.5,218.6z"/>
		</g>
		<g class="st28">
			<path d="M559.6,347V357h-1.2v-0.7h-5.6v0.8h-1.1V347H559.6z M552.8,348.1v2.9h5.6v-2.9H552.8z M558.4,355.2v-3h-5.6v3H558.4z"/>
			<path d="M552.8,367.2c0.9-0.2,1.9-0.4,2.8-0.6l0.1,1.1c-1.8,0.4-3.8,0.9-5.3,1.2l-0.3-1.2c0.5-0.1,1-0.2,1.6-0.3v-9.2h1.2v3.5
				h2.5v1.1h-2.5V367.2z M559.5,367.9c0.5,0,0.6-0.4,0.7-2.1c0.3,0.2,0.7,0.4,1,0.5c-0.1,2-0.4,2.7-1.6,2.7h-1.8
				c-1.3,0-1.6-0.4-1.6-1.9v-8.8h1.1v4.1c1-0.5,2.1-1.1,2.7-1.6l0.8,0.9c-1,0.6-2.3,1.2-3.5,1.7v3.7c0,0.7,0.1,0.8,0.6,0.8H559.5z"
				/>
			<path d="M556.1,372.5c1.2,1.8,3.2,3.5,5.1,4.3c-0.3,0.3-0.5,0.6-0.7,1c-0.5-0.3-0.9-0.6-1.4-0.9v4.4h-1.2v-0.4h-4.5v0.5h-1.1
				v-4.4c-0.5,0.3-1,0.6-1.5,0.9c-0.1-0.2-0.4-0.6-0.7-0.9c2-1,4-2.9,4.9-4.4H556.1z M554.5,370.8c-0.8,1.2-2.1,2.4-3.2,3.2
				c-0.2-0.2-0.6-0.6-0.9-0.8c1.1-0.7,2.3-1.7,3-2.7L554.5,370.8z M558.4,376.4c-1.1-0.9-2.1-1.9-2.8-2.8c-0.6,0.9-1.6,1.9-2.7,2.8
				H558.4z M557.8,379.8v-2.4h-4.5v2.4H557.8z M559.7,373.9c-0.6-0.8-2-2.1-3.1-2.9l0.9-0.6c1.1,0.8,2.5,2,3.2,2.8L559.7,373.9z"/>
			<path d="M556.1,391.1c0.4-0.6,1.1-1.3,1.8-1.8l0.5,0.9c-1.1,0.8-2.1,2-2.8,3.1c-0.7-1.1-1.8-2.3-2.8-3.1l0.5-0.9
				c0.7,0.5,1.4,1.2,1.8,1.8v-8.9h1V391.1z"/>
		</g>
		<g class="st28">
			<path d="M555.1,10.3c-0.4,0.6-1.1,1.3-1.8,1.8l-0.5-0.9c1.1-0.8,2.1-2,2.8-3.1c0.7,1.1,1.8,2.3,2.8,3.1l-0.5,0.9
				c-0.7-0.5-1.4-1.2-1.8-1.8v8.9h-1V10.3z"/>
			<path d="M559.8,29.9c0.3,0,0.4-0.3,0.4-1.8c0.3,0.2,0.7,0.4,1.1,0.5c-0.1,1.8-0.4,2.4-1.4,2.4h-1.3c-1,0-1.4-0.4-1.4-1.6v-5.1
				h-2.5c-0.3,2.9-1.1,5.4-4,6.9c-0.2-0.3-0.5-0.7-0.8-0.9c2.6-1.3,3.3-3.4,3.6-6h-3v-1.1h3.1c0-0.9,0-1.9,0-2.8h1.2
				c0,1,0,1.9-0.1,2.8h3.6v6.2c0,0.5,0,0.5,0.4,0.5H559.8z"/>
			<path d="M555.1,40.7c-1,0.2-2.1,0.3-3,0.5v2H551v-1.8l-0.8,0.1l-0.2-1.1l1-0.1v-7.2l0.5,0.2c1-0.3,2.1-0.6,2.7-1l0.9,0.8
				c-0.9,0.4-2,0.8-3.1,1v1.2h2.6v1H552v1.2h2.7v1H552v1.6c0.9-0.1,2-0.3,3-0.5L555.1,40.7z M560.6,37.7c-0.4,1.4-1.1,2.5-1.9,3.4
				c0.7,0.5,1.5,0.9,2.5,1.1c-0.2,0.2-0.6,0.7-0.7,1c-1-0.3-1.9-0.8-2.6-1.4c-0.9,0.6-1.9,1.1-3,1.4c-0.1-0.3-0.4-0.8-0.6-1
				c1-0.3,2-0.7,2.8-1.2c-0.6-0.7-1-1.5-1.4-2.4l0.7-0.2h-1.1v-1h4.5l0.2,0L560.6,37.7z M556.9,34.4c0,1-0.2,2.3-1.5,3
				c-0.1-0.2-0.5-0.6-0.8-0.8c1.1-0.6,1.2-1.5,1.2-2.3v-1.7h3.7v2.9c0,0.2,0,0.3,0,0.4c0,0,0.1,0,0.2,0h0.3c0.1,0,0.2,0,0.2,0
				c0,0,0.1-0.1,0.1-0.3c0-0.2,0-0.5,0-1c0.2,0.2,0.6,0.3,0.8,0.4c0,0.5,0,1-0.1,1.2c-0.1,0.2-0.2,0.3-0.4,0.4
				c-0.1,0.1-0.4,0.1-0.6,0.1h-0.6c-0.3,0-0.6-0.1-0.7-0.2c-0.2-0.2-0.3-0.4-0.3-1.1v-1.9h-1.6V34.4z M556.6,38.4
				c0.3,0.7,0.7,1.3,1.2,1.9c0.6-0.5,1-1.2,1.3-1.9H556.6z"/>
			<path d="M561,53.5v1.1h-10.7v-1.1h4.4v-9.1h1.2v3.6h4.3V49h-4.3v4.5H561z"/>
		</g>
		<g class="st28">
			<path d="M665.2,202.3v1.2H652v-1.2h5.9v-1.1h-4.3v-1.2h4.3V199h-5v-1.2h11.3v1.2h-4.9v1.1h4.3v1.2h-4.3v1.1H665.2z M663.7,196.9
				h-10.2v-5.4h3.9c0.2-0.4,0.3-0.9,0.4-1.3l1.7,0.1c-0.2,0.4-0.4,0.8-0.6,1.2h4.7V196.9z M662.2,192.5h-7.3v1.1h7.3V192.5z
				 M662.2,194.7h-7.3v1.1h7.3V194.7z"/>
			<path d="M660.5,212.4v1.5h3.6v4.9h-1.4v-0.5H657v0.5h-1.3V214h3.4v-1.5h-4.2v-1.3h4.2v-1.5h-4.5v0.5c0,2.6-0.2,6.3-1.8,8.7
				c-0.3-0.2-0.9-0.6-1.2-0.7c1.5-2.3,1.7-5.6,1.7-8v-4.3h11.1v3.9h-3.8v1.5h4.7v1.3H660.5z M654.6,208.5h8.3v-1.4h-8.3V208.5z
				 M662.7,215.2H657v2h5.7V215.2z"/>
		</g>
		<g class="st28">
			<path d="M395.9,7.4c-0.4,0.6-1.1,1.3-1.8,1.8l-0.5-0.9c1.1-0.8,2.1-2,2.8-3.1c0.7,1.1,1.8,2.3,2.8,3.1l-0.5,0.9
				c-0.7-0.5-1.4-1.2-1.8-1.8v8.9h-1V7.4z"/>
			<path d="M400.7,27c0.3,0,0.4-0.3,0.4-1.8c0.3,0.2,0.7,0.4,1.1,0.5c-0.1,1.8-0.4,2.4-1.4,2.4h-1.3c-1,0-1.4-0.4-1.4-1.6v-5.1h-2.5
				c-0.3,2.9-1.1,5.4-4,6.9c-0.2-0.3-0.5-0.7-0.8-0.9c2.6-1.3,3.3-3.4,3.6-6h-3v-1.1h3.1c0-0.9,0-1.9,0-2.8h1.2c0,1,0,1.9-0.1,2.8
				h3.6v6.2c0,0.5,0,0.5,0.4,0.5H400.7z"/>
			<path d="M395.9,37.8c-1,0.2-2.1,0.3-3,0.5v2h-1.1v-1.8l-0.8,0.1l-0.2-1.1l1-0.1v-7.2l0.5,0.2c1-0.3,2.1-0.6,2.7-1l0.9,0.8
				c-0.9,0.4-2,0.8-3.1,1v1.2h2.6v1h-2.6v1.2h2.7v1h-2.7v1.6c0.9-0.1,2-0.3,3-0.5L395.9,37.8z M401.4,34.8c-0.4,1.4-1.1,2.5-1.9,3.4
				c0.7,0.5,1.5,0.9,2.5,1.1c-0.2,0.2-0.6,0.7-0.7,1c-1-0.3-1.9-0.8-2.6-1.4c-0.9,0.6-1.9,1.1-3,1.4c-0.1-0.3-0.4-0.8-0.6-1
				c1-0.3,2-0.7,2.8-1.2c-0.6-0.7-1-1.5-1.4-2.4l0.7-0.2H396v-1h4.5l0.2,0L401.4,34.8z M397.7,31.5c0,1-0.2,2.3-1.5,3
				c-0.1-0.2-0.5-0.6-0.8-0.8c1.1-0.6,1.2-1.5,1.2-2.3v-1.7h3.7v2.9c0,0.2,0,0.3,0,0.4c0,0,0.1,0,0.2,0h0.3c0.1,0,0.2,0,0.2,0
				c0,0,0.1-0.1,0.1-0.3c0-0.2,0-0.5,0-1c0.2,0.2,0.6,0.3,0.8,0.4c0,0.5,0,1-0.1,1.2c-0.1,0.2-0.2,0.3-0.4,0.4
				c-0.1,0.1-0.4,0.1-0.6,0.1h-0.6c-0.3,0-0.6-0.1-0.7-0.2c-0.2-0.2-0.3-0.4-0.3-1.1v-1.9h-1.6V31.5z M397.5,35.6
				c0.3,0.7,0.7,1.3,1.2,1.9c0.6-0.5,1-1.2,1.3-1.9H397.5z"/>
			<path d="M396.8,43.3v2l0.2-0.2c1.4,0.7,3.3,1.7,4.2,2.4l-0.8,1c-0.8-0.6-2.3-1.6-3.6-2.3v6h-1.2v-9h-4.4v-1.1h10.6v1.1H396.8z"/>
		</g>
		<g class="st28">
			<path d="M449.1,319.3h-4.8v3.3h-1.2v-3.3h-4.7v-1.1h4.7v-1.7h-4v-1.1h4v-3.8h1.2v3.8h4.1v1.1h-4.1v1.7h4.8V319.3z M440.8,314.9
				c-0.2-0.7-0.8-1.8-1.3-2.7l1-0.4c0.6,0.8,1.2,1.9,1.4,2.6L440.8,314.9z M448.1,312.2c-0.5,1-1.1,2-1.5,2.7l-1-0.4
				c0.5-0.7,1.1-1.8,1.4-2.7L448.1,312.2z"/>
			<path d="M448.5,328.4c-0.4,1.4-0.9,2.7-1.6,3.7c0.3,0.9,0.8,1.4,1.1,1.4c0.2,0,0.3-0.3,0.4-1.5c0.3,0.2,0.6,0.5,0.9,0.5
				c-0.2,1.7-0.6,2-1.4,2c-0.7,0-1.2-0.5-1.7-1.5c-0.5,0.6-1.1,1.1-1.7,1.5c-0.2-0.2-0.6-0.6-0.9-0.8c0.2-0.1,0.3-0.2,0.5-0.3h-2.5
				v0.6h-0.9v-5.9h4.1v0.8h-1.4v0.7h1.4v2.3h-1.4v0.7h1.5v0.2c0.3-0.3,0.6-0.6,0.9-1c-0.3-1.1-0.6-2.6-0.7-4.3h-4.9v2.1
				c0,1.5-0.2,3.6-1.2,4.9c-0.2-0.2-0.6-0.5-0.9-0.6c0.9-1.2,1-3,1-4.3v-3h5.8c0-0.3,0-0.6,0-1h0.2v-0.6h-2.9v0.8h-1.1v-0.8h-2.7
				v-0.9h2.7v-0.7h1.1v0.7h2.9v-0.7h1.1v0.7h2.7v0.9h-2.7v0.8H446c0,0.3,0,0.5,0,0.7h1.8c-0.3-0.3-0.7-0.6-1-0.9l0.7-0.5
				c0.4,0.3,0.9,0.7,1.2,0.9l-0.5,0.4h1v0.9h-3c0.1,1.2,0.3,2.3,0.4,3.1c0.4-0.8,0.7-1.6,0.9-2.6L448.5,328.4z M441.6,329v0.7h1V329
				H441.6z M444,330.4h-2.4v0.9h2.4V330.4z M441.6,332.7h1V332h-1V332.7z"/>
			<path d="M443.3,340.5H440v6h-1.1v-10.5h4.4V340.5z M440,337v0.9h2.2V337H440z M442.2,339.6v-0.9H440v0.9H442.2z M448.8,345.1
				c0,0.7-0.2,1-0.6,1.2c-0.5,0.2-1.2,0.2-2.3,0.2c0-0.3-0.2-0.8-0.4-1.2c0.8,0,1.6,0,1.9,0c0.2,0,0.3-0.1,0.3-0.3v-4.6h-3.4v-4.5
				h4.5V345.1z M445.3,337v0.9h2.3V337H445.3z M447.6,339.6v-1h-2.3v1H447.6z"/>
			<path d="M441,356c0.5,0.8,1.5,1.2,2.8,1.3c1.4,0.1,4.1,0,5.6-0.1c-0.1,0.3-0.3,0.8-0.4,1.1c-1.4,0.1-3.9,0.1-5.3,0
				c-1.5-0.1-2.5-0.5-3.3-1.4c-0.6,0.5-1.2,1-1.8,1.5l-0.5-1.1c0.6-0.3,1.2-0.8,1.8-1.2v-2.9h-1.6v-1h2.7V356z M440.5,350.5
				c-0.4-0.6-1.2-1.4-2-2l0.8-0.7c0.7,0.5,1.6,1.3,2.1,1.9L440.5,350.5z M443.2,356.7h-1v-6.1h3.1c-0.6-0.3-1.4-0.6-2-0.9l0.7-0.6
				c0.5,0.2,1,0.4,1.5,0.6c0.5-0.2,0.9-0.5,1.3-0.8h-4.6V348h5.7l0.2-0.1l0.7,0.5c-0.6,0.6-1.5,1.2-2.3,1.6c0.3,0.1,0.6,0.3,0.8,0.4
				h1.5v5.1c0,0.5-0.1,0.8-0.4,0.9c-0.3,0.1-0.8,0.2-1.6,0.2c0-0.3-0.2-0.6-0.3-0.9c0.5,0,1,0,1.1,0c0.1,0,0.2,0,0.2-0.2v-0.8h-1.8
				v1.8h-1v-1.8h-1.7V356.7z M443.2,351.3v0.9h1.7v-0.9H443.2z M444.9,353.9V353h-1.7v0.9H444.9z M447.7,351.3h-1.8v0.9h1.8V351.3z
				 M447.7,353.9V353h-1.8v0.9H447.7z"/>
			<path d="M442,360c-0.2,0.7-0.4,2.1-0.5,2.9c0.5-1.1,1.6-2.3,3-2.3c1.6,0,2.7,1.6,2.7,4.1c0,3.3-2,4.7-5,5.3l-0.7-1.1
				c2.5-0.4,4.4-1.3,4.4-4.2c0-1.8-0.6-3-1.7-3c-1.4,0-2.7,2.1-2.8,3.6c0,0.4,0,0.8,0,1.3l-1.1,0.1c-0.1-0.4-0.1-1.1-0.1-1.9
				c0-1.1,0.2-2.7,0.3-3.7c0.1-0.4,0.1-0.8,0.1-1.1L442,360z"/>
		</g>
		<g class="st28">
			<path d="M15.5,10c-0.2,0.7-0.7,1.6-1.1,2.3l-0.7-0.7c0.7-1.1,1.4-2.6,1.7-3.8c1,0.8,2.4,1.6,3.7,2l-0.2,1
				c-0.8-0.2-1.7-0.7-2.3-1.1l2.9,8.4l-1,0.3L15.5,10z"/>
			<path d="M20.5,21.5l0.5,1.4l3.6-1.2l1.3,3.9c0.2,0.6,0.2,0.9-0.2,1.2c-0.4,0.3-1,0.5-1.9,0.9c-0.2-0.3-0.5-0.7-0.7-0.9
				c0.7-0.2,1.4-0.4,1.5-0.5c0.2-0.1,0.2-0.1,0.2-0.3l-1-2.8l-2.5,0.9l1.9,5.5l-1.1,0.4l-1.9-5.5l-2.3,0.8l1.4,4.1l-1.1,0.4
				l-1.8-5.1l3.4-1.2l-0.5-1.4l-4.5,1.5l-0.3-1l4.5-1.5l-0.5-1.6l1.1-0.4l0.5,1.6l4.6-1.6l0.3,1L20.5,21.5z"/>
			<path d="M27.8,31.2c0.2-0.1,0.6-0.2,0.9-0.4l0.4,1.1c-0.3,0.1-0.7,0.2-0.9,0.3l-1.3,0.4c0.6,2.5,0.3,4.3-1,5.9l-1.3-0.4
				c0.2-0.2,0.6-0.6,0.7-0.9c0.6-1,1-2.3,0.5-4.3l-2,0.7c-0.1,0.8-0.5,1.8-0.8,2.4l-1.2-0.2c0.5-0.8,0.8-1.6,0.9-2.4
				c0.1-0.6,0.1-1.1,0.1-1.6c0-0.3-0.1-0.5-0.1-0.8l1.3-0.2c0,0.3,0,0.5,0,0.7c0,0.3,0,0.6,0,0.9L27.8,31.2z"/>
			<path d="M25.4,40.5c-0.4,1.4-1.2,3-2,4c-0.3-0.1-0.8-0.4-1.1-0.5c0.9-1,1.6-2.4,2-3.6L25.4,40.5z M27.4,41.6
				c1.8,1.3,4.2,2.2,6.2,2.4c-0.2,0.3-0.3,0.8-0.4,1.2c-0.5-0.1-1.1-0.2-1.6-0.4l1.4,4.1l-1.1,0.4l-0.1-0.4l-4.2,1.4l0.1,0.4
				l-1.1,0.4L25.2,47c-0.3,0.5-0.7,0.9-1.1,1.3c-0.2-0.2-0.6-0.5-0.9-0.6c1.6-1.6,2.8-4,3.2-5.8L27.4,41.6z M30.8,44.5
				c-1.3-0.5-2.6-1.1-3.6-1.8c-0.3,1.1-0.9,2.3-1.6,3.5L30.8,44.5z M31.4,47.9l-0.8-2.3l-4.2,1.4l0.8,2.3L31.4,47.9z M31.3,41.7
				c-0.9-0.6-2.5-1.3-3.9-1.7l0.6-0.9c1.3,0.4,3,1,3.9,1.6L31.3,41.7z"/>
		</g>
		<g class="st28">
			<path d="M436,36.6h-6v4.1h-1.5v-4.1h-5.9v-1.4h5.9v-2.1h-5v-1.4h5V27h1.5v4.8h5.2v1.4H430v2.1h6V36.6z M425.6,31.2
				c-0.3-0.9-0.9-2.3-1.6-3.3l1.3-0.5c0.7,1,1.4,2.4,1.7,3.3L425.6,31.2z M434.8,27.8c-0.6,1.2-1.3,2.5-1.9,3.4l-1.3-0.5
				c0.6-0.9,1.3-2.3,1.7-3.4L434.8,27.8z"/>
			<path d="M435.3,48c-0.5,1.8-1.1,3.3-2,4.7c0.4,1.2,0.9,1.7,1.4,1.7c0.3,0,0.4-0.4,0.5-1.9c0.3,0.3,0.8,0.6,1.1,0.7
				c-0.2,2.1-0.7,2.5-1.8,2.5c-0.8,0-1.5-0.7-2.1-1.9c-0.6,0.7-1.3,1.4-2.1,1.9c-0.2-0.2-0.8-0.7-1.1-1c0.2-0.1,0.4-0.3,0.6-0.4
				h-3.2v0.7h-1.1v-7.3h5.1v0.9H429v0.9h1.7v2.9H429v0.9h1.9v0.2c0.4-0.4,0.7-0.8,1.1-1.2c-0.4-1.4-0.7-3.2-0.9-5.3h-6.1v2.6
				c0,1.9-0.2,4.5-1.5,6.1c-0.2-0.2-0.8-0.6-1.1-0.7c1.1-1.5,1.3-3.7,1.3-5.4v-3.8h7.3c0-0.4,0-0.8-0.1-1.2h0.3V44h-3.6v1h-1.4v-1
				h-3.4v-1.2h3.4V42h1.4v0.9h3.6V42h1.4v0.9h3.4V44h-3.4v1h-0.4c0,0.3,0,0.6,0,0.9h2.2c-0.3-0.4-0.8-0.8-1.3-1.1l0.8-0.6
				c0.5,0.3,1.2,0.8,1.5,1.2l-0.7,0.5h1.3v1.2h-3.8c0.1,1.5,0.3,2.8,0.6,3.9c0.5-1,0.9-2,1.2-3.2L435.3,48z M426.7,48.8v0.9h1.3
				v-0.9H426.7z M429.7,50.5h-3v1.1h3V50.5z M426.7,53.4h1.3v-0.9h-1.3V53.4z"/>
			<path d="M428.7,63.2h-4.1v7.5h-1.4V57.6h5.5V63.2z M424.6,58.8v1.1h2.8v-1.1H424.6z M427.4,62.1v-1.2h-2.8v1.2H427.4z M435.6,69
				c0,0.9-0.2,1.3-0.8,1.5c-0.6,0.2-1.5,0.3-2.9,0.3c0-0.4-0.3-1-0.5-1.4c1,0,2,0,2.3,0c0.3,0,0.4-0.1,0.4-0.4v-5.7h-4.2v-5.6h5.7
				V69z M431.3,58.8v1.1h2.9v-1.1H431.3z M434.2,62.1v-1.2h-2.9v1.2H434.2z"/>
			<path d="M424.3,80.8c-0.2,1.4-0.5,2.9-1,3.8c-0.2-0.2-0.8-0.4-1-0.5c0.4-0.9,0.7-2.2,0.8-3.5L424.3,80.8z M425.9,79.5v6.2h-1.2
				v-6.1c-0.8,0-1.6,0.1-2.2,0.1l-0.1-1.2l1.1-0.1c0.3-0.3,0.5-0.7,0.8-1.1c-0.4-0.7-1.2-1.5-1.8-2.1l0.7-0.9
				c0.1,0.1,0.3,0.3,0.4,0.4c0.5-0.8,0.9-1.9,1.2-2.7l1.2,0.5c-0.5,1-1.2,2.2-1.7,3c0.3,0.3,0.5,0.6,0.7,0.8
				c0.6-0.9,1.1-1.8,1.5-2.6l1.2,0.5c-0.8,1.3-1.9,2.9-2.9,4.2l1.8-0.1c-0.2-0.4-0.4-0.8-0.6-1.1l1-0.4c0.6,1,1.2,2.3,1.4,3.1
				l-1.1,0.5c-0.1-0.3-0.2-0.6-0.3-0.9L425.9,79.5z M427.3,80.5c0.3,0.8,0.7,1.9,0.8,2.6l-1.1,0.3c-0.1-0.7-0.3-1.8-0.7-2.6
				L427.3,80.5z M431.2,80.3c-0.5,2.4-1.7,4-3.1,4.8c-0.2-0.3-0.6-0.8-0.9-1c1.1-0.6,2-1.6,2.5-3H428V80h2.3l0.2,0L431.2,80.3z
				 M436.2,80.2c-0.7,0.6-1.5,1.3-2.2,1.8c0.6,0.8,1.4,1.6,2.5,2c-0.3,0.2-0.7,0.8-0.8,1.1c-1.4-0.8-2.4-2-3-3.3v2.5
				c0,0.6-0.1,1-0.5,1.2c-0.4,0.2-1,0.2-2,0.2c0-0.3-0.2-0.9-0.4-1.2c0.6,0,1.2,0,1.3,0c0.2,0,0.2,0,0.2-0.2v-5.5h-2.9v-5.4h2.4
				c0.2-0.5,0.4-1.1,0.6-1.5l1.6,0.3c-0.2,0.4-0.5,0.9-0.7,1.3h3.3v5.4h-3V79c0.2,0.7,0.4,1.4,0.8,2.1c0.6-0.5,1.2-1.2,1.6-1.6
				L436.2,80.2z M429.7,75.7h4.6v-1.1h-4.6V75.7z M429.7,77.8h4.6v-1.1h-4.6V77.8z"/>
			<path d="M436,111.6h-6v4.1h-1.5v-4.1h-5.9v-1.4h5.9v-2.1h-5v-1.4h5V102h1.5v4.8h5.2v1.4H430v2.1h6V111.6z M425.6,106.2
				c-0.3-0.9-0.9-2.3-1.6-3.3l1.3-0.5c0.7,1,1.4,2.4,1.7,3.3L425.6,106.2z M434.8,102.8c-0.6,1.2-1.3,2.5-1.9,3.4l-1.3-0.5
				c0.6-0.9,1.3-2.3,1.7-3.4L434.8,102.8z"/>
			<path d="M435.3,123c-0.5,1.8-1.1,3.3-2,4.7c0.4,1.2,0.9,1.7,1.4,1.7c0.3,0,0.4-0.4,0.5-1.9c0.3,0.3,0.8,0.6,1.1,0.7
				c-0.2,2.1-0.7,2.5-1.8,2.5c-0.8,0-1.5-0.7-2.1-1.9c-0.6,0.7-1.3,1.4-2.1,1.9c-0.2-0.2-0.8-0.7-1.1-1c0.2-0.1,0.4-0.3,0.6-0.4
				h-3.2v0.7h-1.1v-7.3h5.1v0.9H429v0.9h1.7v2.9H429v0.9h1.9v0.2c0.4-0.4,0.7-0.8,1.1-1.2c-0.4-1.4-0.7-3.2-0.9-5.3h-6.1v2.6
				c0,1.9-0.2,4.5-1.5,6.1c-0.2-0.2-0.8-0.6-1.1-0.7c1.1-1.5,1.3-3.7,1.3-5.4v-3.8h7.3c0-0.4,0-0.8-0.1-1.2h0.3V119h-3.6v1h-1.4v-1
				h-3.4v-1.2h3.4V117h1.4v0.9h3.6V117h1.4v0.9h3.4v1.2h-3.4v1h-0.4c0,0.3,0,0.6,0,0.9h2.2c-0.3-0.4-0.8-0.8-1.3-1.1l0.8-0.6
				c0.5,0.3,1.2,0.8,1.5,1.2l-0.7,0.5h1.3v1.2h-3.8c0.1,1.5,0.3,2.8,0.6,3.9c0.5-1,0.9-2,1.2-3.2L435.3,123z M426.7,123.8v0.9h1.3
				v-0.9H426.7z M429.7,125.5h-3v1.1h3V125.5z M426.7,128.4h1.3v-0.9h-1.3V128.4z"/>
			<path d="M428.7,138.2h-4.1v7.5h-1.4v-13.1h5.5V138.2z M424.6,133.8v1.1h2.8v-1.1H424.6z M427.4,137.1v-1.2h-2.8v1.2H427.4z
				 M435.6,144c0,0.9-0.2,1.3-0.8,1.5c-0.6,0.2-1.5,0.3-2.9,0.3c0-0.4-0.3-1-0.5-1.4c1,0,2,0,2.3,0c0.3,0,0.4-0.1,0.4-0.4v-5.7h-4.2
				v-5.6h5.7V144z M431.3,133.8v1.1h2.9v-1.1H431.3z M434.2,137.1v-1.2h-2.9v1.2H434.2z"/>
			<path d="M422.3,159.6c0.5-0.8,0.7-2.1,0.8-3.4l0.8,0.2c-0.1,1.4-0.2,2.8-0.8,3.7L422.3,159.6z M428.9,154.3c0,0,0,0.4,0,0.5
				c-0.2,3.6-0.3,5-0.7,5.4c-0.2,0.3-0.5,0.4-0.8,0.4c-0.3,0-0.8,0-1.4,0c0-0.3-0.1-0.8-0.3-1.1c0.5,0.1,0.9,0.1,1.1,0.1
				c0.2,0,0.3,0,0.4-0.2c0.1-0.2,0.3-0.6,0.4-1.6l-0.5,0.2c-0.1-0.5-0.4-1.3-0.8-1.9l0.6-0.2c0.3,0.5,0.5,1,0.7,1.5
				c0-0.5,0.1-1.2,0.1-2h-4.5v-7.9h5.6v1.2h-2v1.1h1.7v1.1h-1.7v1.1h1.7v1.1h-1.7v1.2H428.9z M424.8,156.4c0.2,0.9,0.2,2,0.2,2.7
				l-0.7,0.1c0-0.7,0-1.9-0.2-2.7L424.8,156.4z M424.4,148.7v1.1h1.2v-1.1H424.4z M425.6,150.9h-1.2v1.1h1.2V150.9z M424.4,154.3
				h1.2v-1.2h-1.2V154.3z M425.8,158.8c0-0.6-0.3-1.6-0.5-2.4l0.6-0.1c0.3,0.8,0.5,1.8,0.6,2.4L425.8,158.8z M433.5,153.9
				c0.4,2.6,1.3,4.7,2.9,5.8c-0.3,0.2-0.7,0.8-0.9,1.1c-1.9-1.3-2.8-3.8-3.3-6.9h-1.1c0,2.3-0.3,5.1-1.6,6.9
				c-0.2-0.2-0.8-0.6-1.1-0.7c1.3-1.9,1.4-4.7,1.4-6.8v-5.7h5.9v6.3H433.5z M431.1,148.8v3.8h3.3v-3.8H431.1z"/>
		</g>
		<g class="st28">
			<path d="M34.8,7.6c-0.1,0.6-0.2,1.1-0.3,1.7L41.2,7l2.4,7.1c0.2,0.7,0.2,1.2-0.2,1.5c-0.4,0.4-1.2,0.7-2.4,1
				c-0.2-0.3-0.6-0.8-0.8-1.1c0.9-0.2,1.7-0.5,1.9-0.6c0.2-0.1,0.3-0.2,0.2-0.4l-0.4-1.2l-5.6,1.9l0.9,2.8L36,18.4l-2.2-6.5
				c-0.4,1-0.9,1.9-1.5,2.7c-0.3-0.2-0.9-0.6-1.2-0.7c1.2-1.6,1.9-3.7,2.2-5.7L30,9.2L29.6,8l3.9-1.3c0-0.7,0-1.3,0-2l1.5-0.1
				c0,0.5,0,1.1,0,1.6L42,3.8L42.4,5L34.8,7.6z M40.3,8.6l-5.6,1.9l0.4,1.2l5.6-1.9L40.3,8.6z M41.5,12.2l-0.4-1.2l-5.6,1.9L36,14
				L41.5,12.2z"/>
			<path d="M37.3,23.5c-0.6-0.5-1.9-1.1-3-1.4L35,21c1,0.3,2.3,0.8,3,1.3L37.3,23.5z M38.9,24.6c-0.8,1-1.7,2-2.5,2.9l-1-0.9
				c0.7-0.7,1.7-1.8,2.8-3L38.9,24.6z M44.8,26.9c1.6,0.7,3.7,1,5.7,0.9c-0.2,0.4-0.4,1-0.5,1.4c-2,0-4.3-0.5-6.1-1.3l1.1,3.3
				l-1.3,0.5l-1.1-3.4c-0.8,1.8-2.3,3.6-3.9,4.9c-0.3-0.3-0.9-0.6-1.3-0.8c1.5-1.1,3-2.7,3.9-4.2l-4.4,1.5l-0.4-1.2l5.5-1.9
				l-0.4-1.1l-2,0.7l-1.9-5.5l1.7-0.6c0-0.5-0.1-1.1-0.1-1.5l1.5-0.3c0,0.5,0,1-0.1,1.4l2.3-0.8l1.2,3.5l0.4-0.9
				c1.2,0.2,3,0.5,3.9,0.9l-0.5,1.3c-0.8-0.4-2.5-0.8-3.7-1l0.6,1.8l-2,0.7l0.4,1.1l5.6-1.9l0.4,1.2L44.8,26.9z M39.8,22.5l2.8-1
				l-0.4-1.2l-2.8,1L39.8,22.5z M40.5,24.7l2.8-1l-0.4-1.3l-2.8,1L40.5,24.7z M46.5,17.6c-0.5,1.1-1.1,2.3-1.6,3.1l-1.2-0.3
				c0.5-0.8,1.2-2.1,1.5-3.1L46.5,17.6z"/>
			<path d="M48.3,42.9l-4.9,1.7l0.4,1.1L42.6,46L39,35.3l6.1-2.1L48.3,42.9z M40.5,36l1,3l1.4-0.5l-1-3L40.5,36z M43,43.4l1.4-0.5
				l-1.1-3.2l-1.4,0.5L43,43.4z M44.3,34.7l-1.4,0.5l1,3l1.4-0.5L44.3,34.7z M46.8,42.1l-1.1-3.2l-1.4,0.5l1.1,3.2L46.8,42.1z
				 M52.4,33.2l-1.9,0.6l2.9,8.5c0.3,0.8,0.2,1.2-0.2,1.6c-0.5,0.4-1.3,0.7-2.7,1.2c-0.2-0.4-0.6-0.9-0.9-1.2c1-0.3,1.9-0.6,2.2-0.7
				c0.3-0.1,0.3-0.2,0.2-0.4l-2.9-8.5l-3,1L45.6,34l6.3-2.1L52.4,33.2z"/>
			<path d="M48.7,55l2,5.9l-1.2,0.4l-2-5.8c-0.8,0.3-1.4,0.6-2.1,0.8L45,55.2l1-0.4c0.1-0.4,0.3-0.8,0.4-1.3c-0.6-0.5-1.6-1-2.4-1.4
				l0.4-1.1c0.2,0.1,0.3,0.2,0.5,0.2c0.2-0.9,0.3-2.1,0.3-3l1.3,0c-0.2,1.1-0.4,2.5-0.6,3.4c0.3,0.2,0.6,0.4,0.9,0.6
				c0.3-1,0.5-2.1,0.6-2.9l1.3,0.1c-0.4,1.5-0.9,3.4-1.4,4.9l1.6-0.7c-0.3-0.3-0.6-0.6-0.9-0.9l0.8-0.7c0.9,0.7,1.9,1.8,2.3,2.5
				l-0.8,0.8c-0.1-0.2-0.3-0.5-0.5-0.8L48.7,55z M47.6,56.7c0.3,1.4,0.4,2.9,0.3,3.9c-0.3-0.1-0.8-0.1-1.1-0.1c0.1-1,0-2.3-0.3-3.6
				L47.6,56.7z M58.7,52.3c-0.5,0.8-1,1.7-1.5,2.4c0.8,0.6,1.8,1,3,1.1c-0.2,0.3-0.4,1-0.4,1.3c-1.6-0.3-2.9-1.1-3.9-2.1l0.8,2.3
				c0.2,0.6,0.2,1-0.1,1.3c-0.3,0.3-0.9,0.5-1.8,0.8c-0.2-0.3-0.5-0.8-0.7-1c0.6-0.2,1.1-0.4,1.3-0.4c0.2-0.1,0.2-0.1,0.1-0.3
				l-1.8-5.2l-2.8,0.9l-1.7-5.1l2.3-0.8c0-0.5,0.1-1.2,0-1.6l1.6-0.3c-0.1,0.5-0.2,1-0.3,1.4l3.1-1.1l1.7,5.1l-2.8,0.9l0,0.1
				c0.4,0.6,0.9,1.2,1.4,1.7c0.4-0.7,0.8-1.5,1-2.1L58.7,52.3z M50.3,55.5c0.6,0.7,1.2,1.6,1.5,2.2L51,58.4
				c-0.3-0.7-0.9-1.6-1.5-2.3L50.3,55.5z M51.1,50.1l4.3-1.5l-0.3-1l-4.3,1.5L51.1,50.1z M54,54c0.3,2.4-0.3,4.3-1.4,5.6
				c-0.3-0.2-0.8-0.5-1.1-0.6c0.9-0.9,1.4-2.2,1.4-3.7l-1.7,0.6l-0.4-1.1l2.2-0.7l0.2-0.1L54,54z M51.8,52.1l4.3-1.5l-0.3-1
				l-4.3,1.5L51.8,52.1z"/>
			<path d="M60.7,82.4c0.1,1.5,0,2.9-0.4,4c1.5,0.6,3.1,0.3,5.1-0.4c0.6-0.2,3.6-1.2,4.4-1.5c-0.1,0.4-0.1,1-0.1,1.4l-4,1.3
				c-2.3,0.8-4.2,1.1-5.9,0.3c-0.5,1-1.2,1.9-2,2.7c-0.2-0.2-0.8-0.6-1.1-0.7c0.8-0.7,1.5-1.6,2-2.5c-0.5-0.4-1-0.8-1.4-1.4
				c-0.2,0.5-0.4,1.1-0.7,1.5c-0.2-0.2-0.8-0.5-1.1-0.7c0.7-1.1,1.1-2.5,1.2-3.9L54.8,83L54.4,82l2.3-0.8l-0.3-0.9l-2,0.7l-0.3-1
				l2-0.7l-0.3-0.8l-2.1,0.7l-0.3-1l2.1-0.7l-0.3-1l1.2-0.4l0.3,1l2.1-0.7l0.3,1L57,78.2l0.3,0.8l1.9-0.6l0.2,0.5
				c0.6-1.1,0.8-2.5,0.8-3.9l1.2-0.1c0,0.5,0,1-0.1,1.5l4.7-1.6c0,0,0.1,0.4,0.2,0.6c1.9,5.9,2.5,7.9,2.3,8.6
				c-0.1,0.5-0.4,0.7-0.7,0.9c-0.3,0.2-0.9,0.4-1.4,0.5c-0.1-0.3-0.4-0.8-0.7-1c0.5-0.1,1-0.3,1.2-0.4c0.2-0.1,0.3-0.1,0.3-0.4
				c0.1-0.5-0.4-2.3-2-7.4l-4,1.4c-0.1,0.5-0.2,1-0.4,1.4l0.3-0.2c0.5,0.4,1,1.1,1.2,1.5l-0.8,0.6c-0.2-0.4-0.7-1-1.1-1.5
				c-0.3-0.1-0.7-0.2-1-0.3l0.1,0.4l-1.9,0.6l0.3,0.9l2.3-0.8l0.4,1.1L57.9,82c0,0.3,0,0.7-0.1,1l1.8-0.6l0.2-0.1L60.7,82.4z
				 M57.6,84.2c0.5,0.7,1,1.2,1.5,1.6c0.2-0.7,0.3-1.5,0.3-2.3L57.6,84.2L57.6,84.2z M64.5,85.3l-1-2.9c-0.2,1.1-0.6,2.1-1.1,2.9
				c-0.3-0.2-0.7-0.4-1-0.5c0.6-0.8,1.1-2.1,1.4-3.3L61,82.1l-0.3-1l2.2-0.7l-0.9-2.7l0.9-0.3l0.9,2.7l2-0.7l0.3,1L64.2,81
				c0.6,0.2,1.9,0.7,2.3,0.8L66.3,83c-0.4-0.3-1.2-0.7-1.9-1.1l1.1,3.1L64.5,85.3z M65,77.4c-0.1,0.7-0.2,1.6-0.3,2.1l-0.9,0
				c0.1-0.6,0.2-1.5,0.2-2.1L65,77.4z"/>
			<path d="M67.6,99.7l-4.9,1.7l0.4,1.1l-1.1,0.4l-3.7-10.8l6.1-2.1L67.6,99.7z M59.7,92.9l1,3l1.4-0.5l-1-3L59.7,92.9z M62.2,100.2
				l1.4-0.5l-1.1-3.2L61.2,97L62.2,100.2z M63.5,91.6L62.2,92l1,3l1.4-0.5L63.5,91.6z M66,99l-1.1-3.2l-1.4,0.5l1.1,3.2L66,99z
				 M71.6,90l-1.9,0.6l2.9,8.5c0.3,0.8,0.2,1.2-0.2,1.6c-0.5,0.4-1.3,0.7-2.7,1.2c-0.2-0.4-0.6-0.9-0.9-1.2c1-0.3,1.9-0.6,2.2-0.7
				c0.3-0.1,0.3-0.2,0.2-0.4l-2.9-8.5l-3,1l-0.4-1.3l6.3-2.1L71.6,90z"/>
			<path d="M70.8,110.6c0,0,0.1,0.3,0.1,0.5c1,3.5,1.3,4.8,1.1,5.4c-0.1,0.3-0.3,0.5-0.7,0.7c-0.3,0.1-0.8,0.3-1.3,0.5
				c-0.1-0.3-0.4-0.7-0.6-1c0.5-0.1,0.9-0.2,1-0.3c0.2-0.1,0.3-0.1,0.3-0.3c0.1-0.2,0-0.7-0.2-1.7l-0.4,0.3
				c-0.3-0.5-0.8-1.1-1.4-1.6l0.5-0.4c0.4,0.3,0.8,0.8,1.2,1.2c-0.1-0.5-0.3-1.2-0.5-1.9l-4.3,1.5l-2.5-7.4l5.3-1.8l0.4,1.1
				l-1.9,0.6l0.4,1.1l1.6-0.6l0.4,1l-1.6,0.6l0.4,1.1l1.6-0.6l0.4,1l-1.6,0.6l0.4,1.1L70.8,110.6z M64.6,106.8l0.4,1.1l1.2-0.4
				l-0.4-1.1L64.6,106.8z M66.5,108.5l-1.2,0.4l0.4,1.1l1.2-0.4L66.5,108.5z M66.2,117.7c0.3-0.9,0-2.2-0.3-3.5l0.8-0.1
				c0.4,1.3,0.7,2.7,0.4,3.7L66.2,117.7z M66.4,112.1l1.2-0.4l-0.4-1.1l-1.2,0.4L66.4,112.1z M67.6,113.9c0.4,0.8,0.8,1.8,1.1,2.5
				l-0.6,0.3c-0.2-0.7-0.6-1.7-1.1-2.5L67.6,113.9z M69.2,115.9c-0.2-0.6-0.8-1.5-1.3-2.1l0.6-0.3c0.5,0.6,1,1.5,1.3,2.1L69.2,115.9
				z M74.9,108.8c1.2,2.3,2.8,4.1,4.6,4.6c-0.2,0.3-0.4,1-0.5,1.4c-2.2-0.7-3.9-2.7-5.3-5.5l-1,0.3c0.7,2.1,1.3,4.9,0.7,7.1
				c-0.3-0.1-1-0.3-1.3-0.3c0.7-2.2-0.1-4.9-0.8-6.9l-1.8-5.4l5.6-1.9l2,6L74.9,108.8z M71.1,104.7l1.2,3.6l3.2-1.1l-1.2-3.6
				L71.1,104.7z"/>
		</g>
		<g class="st28">
			<path d="M170.5,357c0.3,2.5-0.2,4.7-1.3,6.1c-0.3-0.2-0.8-0.4-1.1-0.5c0.9-1.1,1.4-2.7,1.4-4.4l-2.4,0.9l-0.4-1l2.9-1.1l0.2-0.1
				L170.5,357z M176.2,353.8c-0.5,1.1-1.3,2.5-1.9,3.4c1.3,0.8,2.7,1.3,4.2,1.3c-0.2,0.3-0.3,0.9-0.4,1.2c-2.1-0.1-3.8-1-5.4-2.4
				l1.3,3.3c0.2,0.6,0.2,0.9-0.1,1.3c-0.3,0.3-1,0.6-1.9,0.9c-0.2-0.3-0.5-0.7-0.8-0.9c0.6-0.2,1.3-0.5,1.5-0.6
				c0.2-0.1,0.2-0.2,0.2-0.4l-2.2-5.7l-3,1.1l-0.4-1l4.1-1.6l0.3,0.9c0.5,0.7,1.1,1.3,1.7,1.8c0.6-1,1.2-2.2,1.5-3.1L176.2,353.8z
				 M172.4,353.6c-1.1-0.2-3.2-0.1-4.7,0.1l0.2-1.1c1.4-0.2,3.5-0.3,4.7-0.2L172.4,353.6z"/>
			<path d="M179.1,362l3.6,9.4l-1.1,0.4l-0.3-0.7l-7,2.7l0.3,0.7l-1,0.4l-3.6-9.4L179.1,362z M171.4,366.1l1.1,2.8l2.9-1.1l-1.1-2.8
				L171.4,366.1z M174,372.8l2.9-1.1l-1.1-2.8l-2.9,1.1L174,372.8z M178.4,363.4l-3,1.2l1.1,2.8l3-1.2L178.4,363.4z M181,370.1
				l-1.1-2.8l-3,1.2l1.1,2.8L181,370.1z"/>
			<path d="M181.8,382.4l-3.9,1.5l0.3,0.8l-0.9,0.3l-3.3-8.5l4.8-1.9L181.8,382.4z M175.3,377.2l0.9,2.4l1.1-0.4l-0.9-2.4
				L175.3,377.2z M177.5,383l1.1-0.4l-1-2.5l-1.1,0.4L177.5,383z M178.3,376l-1.1,0.4l0.9,2.4l1.1-0.4L178.3,376z M180.5,381.8
				l-1-2.5l-1.1,0.4l1,2.5L180.5,381.8z M184.7,374.5l-1.5,0.6l2.6,6.7c0.2,0.6,0.2,1-0.1,1.3c-0.4,0.3-1,0.6-2.1,1
				c-0.2-0.3-0.5-0.7-0.8-0.9c0.8-0.3,1.5-0.6,1.7-0.7c0.2-0.1,0.3-0.2,0.2-0.4l-2.6-6.7l-2.4,0.9l-0.4-1l4.9-1.9L184.7,374.5z"/>
			<path d="M186.6,393.5c0.2-0.7,0.6-1.6,1.1-2.3l0.8,0.6c-0.7,1.1-1.3,2.6-1.5,3.9c-1-0.8-2.5-1.5-3.7-1.9l0.1-1
				c0.8,0.2,1.7,0.6,2.3,1l-3.2-8.3l0.9-0.4L186.6,393.5z"/>
		</g>
		<g class="st28">
			<path d="M109,364.9c-0.5,1.1-1.2,2.3-2.1,3.1c-0.2-0.2-0.6-0.5-0.9-0.6c0.8-0.7,1.5-1.8,1.8-2.8L109,364.9z M113.7,363.9v4.7
				c0,0.6-0.1,0.9-0.5,1.1c-0.4,0.2-1,0.2-1.9,0.2c0-0.3-0.2-0.8-0.4-1.1c0.6,0,1.2,0,1.4,0s0.2,0,0.2-0.2v-4.7H111v0.6
				c0,1.7-0.3,3.9-2.6,5.5c-0.2-0.3-0.6-0.6-0.8-0.8c2.1-1.4,2.3-3.3,2.3-4.7v-0.6h-3.5v-1.1h4.7v-1.5h-3.5v-1.1h3.5v-1.3h1.1v1.3
				h3.8v1.1h-3.8v1.5h4.8v1.1H113.7z M115.4,364.5c0.7,0.9,1.5,2.2,1.9,3l-1.1,0.5c-0.3-0.8-1.1-2.1-1.8-3.1L115.4,364.5z"/>
			<path d="M110.1,378.3c-1.2,0.6-2.5,1.2-3.6,1.6l-0.4-1.1c0.4-0.2,1-0.4,1.6-0.6v-3.5h-1.3v-1.1h1.3V371h1v2.7h1.2v1.1h-1.2v3.1
				c0.4-0.2,0.8-0.3,1.1-0.5L110.1,378.3z M116.8,374.6c-0.4,2-1.1,3.5-2,4.7c0.7,0.7,1.5,1.2,2.5,1.6c-0.3,0.3-0.6,0.7-0.8,1
				c-1-0.4-1.8-1-2.5-1.7c-0.7,0.7-1.6,1.3-2.6,1.7c-0.1-0.3-0.4-0.7-0.7-0.9c0.9-0.4,1.8-0.9,2.5-1.6c-0.7-0.9-1.2-2-1.6-3.3
				c-0.1,1.9-0.5,4.2-2,5.8c-0.2-0.2-0.6-0.6-0.9-0.7c1.6-1.7,1.8-4.1,1.8-6v-3.6h6.5v1.1h-5.4v1.9h4.2l0.2,0L116.8,374.6z
				 M112.5,375.4c0.3,1.1,0.8,2.1,1.5,3c0.6-0.8,1.1-1.8,1.5-3H112.5z"/>
			<path d="M112.1,391.8c0.4-0.6,1.1-1.3,1.8-1.8l0.5,0.9c-1.1,0.8-2.1,2-2.8,3.1c-0.7-1.1-1.8-2.3-2.8-3.1l0.5-0.9
				c0.7,0.5,1.4,1.2,1.8,1.8v-8.9h1V391.8z"/>
		</g>
		<polyline class="st41" points="409.5,152.2 402.7,157 409.5,161.8 		"/>
		<polyline class="st41" points="85.3,140.6 93,143.9 93.6,135.6 		"/>
		<polyline class="st41" points="409.5,204 402.7,208.9 409.5,213.7 		"/>
		<polyline class="st41" points="409.5,228.8 402.7,233.6 409.5,238.4 		"/>
		<rect x="334.8" y="283.4" class="st40" width="71.3" height="16"/>
		<g class="st28">
			<g>
				<path class="st51" d="M339.2,291c0-2.9,1.9-4.6,4.1-4.6c1.1,0,2,0.5,2.6,1.1l-0.9,1.1c-0.4-0.4-1-0.7-1.6-0.7
					c-1.3,0-2.4,1.2-2.4,3.1c0,1.9,0.9,3.1,2.3,3.1c0.8,0,1.4-0.4,1.8-0.9l0.9,1.1c-0.7,0.9-1.7,1.3-2.8,1.3
					C341.1,295.5,339.2,293.9,339.2,291z"/>
				<path class="st51" d="M347,292c0-2.2,1.5-3.5,3.2-3.5s3.2,1.3,3.2,3.5c0,2.2-1.5,3.5-3.2,3.5S347,294.3,347,292z M351.6,292
					c0-1.3-0.5-2.1-1.4-2.1s-1.4,0.8-1.4,2.1c0,1.3,0.5,2.1,1.4,2.1S351.6,293.3,351.6,292z"/>
				<path class="st51" d="M354.5,292c0-2.2,1.6-3.5,3.4-3.5c0.8,0,1.5,0.3,2,0.7l-0.8,1.1c-0.3-0.3-0.6-0.4-1-0.4
					c-1,0-1.7,0.8-1.7,2.1c0,1.3,0.7,2.1,1.7,2.1c0.5,0,0.9-0.2,1.3-0.5l0.7,1.2c-0.6,0.6-1.5,0.8-2.2,0.8
					C355.9,295.5,354.5,294.3,354.5,292z"/>
				<path class="st51" d="M360.5,292c0-2.2,1.5-3.5,3.2-3.5s3.2,1.3,3.2,3.5c0,2.2-1.5,3.5-3.2,3.5S360.5,294.3,360.5,292z
					 M365.1,292c0-1.3-0.5-2.1-1.4-2.1s-1.4,0.8-1.4,2.1c0,1.3,0.5,2.1,1.4,2.1S365.1,293.3,365.1,292z"/>
				<path class="st51" d="M368.4,285.8h1.7v5.8h0l2.3-2.9h1.9l-2.3,2.7l2.5,4h-1.9l-1.6-2.8l-1,1.1v1.7h-1.7V285.8z"/>
				<path class="st51" d="M375.7,288.7h1.4l0.1,0.9h0c0.6-0.6,1.3-1.1,2.2-1.1c1.5,0,2.1,1,2.1,2.7v4.2h-1.8v-4c0-1-0.3-1.4-0.9-1.4
					c-0.6,0-0.9,0.3-1.4,0.8v4.6h-1.8V288.7z"/>
				<path class="st51" d="M382.9,292c0-2.2,1.5-3.5,3.2-3.5s3.2,1.3,3.2,3.5c0,2.2-1.5,3.5-3.2,3.5S382.9,294.3,382.9,292z
					 M387.6,292c0-1.3-0.5-2.1-1.4-2.1s-1.4,0.8-1.4,2.1c0,1.3,0.5,2.1,1.4,2.1S387.6,293.3,387.6,292z"/>
				<path class="st51" d="M390.8,293v-3h-0.9v-1.3l1-0.1l0.2-1.8h1.5v1.8h1.7v1.4h-1.7v3c0,0.8,0.3,1.1,0.9,1.1
					c0.2,0,0.5-0.1,0.7-0.1l0.3,1.3c-0.4,0.1-0.8,0.3-1.4,0.3C391.4,295.5,390.8,294.5,390.8,293z"/>
				<path class="st51" d="M394.8,294.6l0.8-1.1c0.6,0.5,1.2,0.7,1.8,0.7c0.7,0,1-0.3,1-0.7c0-0.5-0.7-0.7-1.4-1
					c-0.9-0.3-1.8-0.8-1.8-2c0-1.2,1-2.1,2.5-2.1c1,0,1.7,0.4,2.3,0.8l-0.8,1.1c-0.5-0.3-0.9-0.6-1.5-0.6c-0.6,0-0.9,0.3-0.9,0.6
					c0,0.5,0.7,0.7,1.4,0.9c0.9,0.3,1.9,0.8,1.9,2c0,1.2-0.9,2.1-2.7,2.1C396.4,295.5,395.5,295.2,394.8,294.6z"/>
			</g>
		</g>
	</g>
</g>
</svg>
